<?xml version="1.0" encoding="UTF-8" standalone="no"?>
<!-- Created with Inkscape (http://www.inkscape.org/) -->

<svg
   version="1.1"
   id="svg1"
   width="1600"
   height="627"
   viewBox="0 0 1600 627"
   sodipodi:docname="Map outline.svg"
   inkscape:version="1.4.2 (f4327f4, 2025-05-13)"
   xmlns:inkscape="http://www.inkscape.org/namespaces/inkscape"
   xmlns:sodipodi="http://sodipodi.sourceforge.net/DTD/sodipodi-0.dtd"
   xmlns="http://www.w3.org/2000/svg"
   xmlns:svg="http://www.w3.org/2000/svg">
  <defs
     id="defs1" />
  <sodipodi:namedview
     id="namedview1"
     pagecolor="#ffffff"
     bordercolor="#000000"
     borderopacity="0.25"
     inkscape:showpageshadow="2"
     inkscape:pageopacity="0.0"
     inkscape:pagecheckerboard="0"
     inkscape:deskcolor="#d1d1d1"
     inkscape:zoom="0.78488853"
     inkscape:cx="658.05523"
     inkscape:cy="269.46502"
     inkscape:window-width="1920"
     inkscape:window-height="1017"
     inkscape:window-x="-8"
     inkscape:window-y="-8"
     inkscape:window-maximized="1"
     inkscape:current-layer="g1" />
  <g
     inkscape:groupmode="layer"
     inkscape:label="Image"
     id="g1">
    <path
       id="path1"
       style="fill:#000000"
       d="m 761.375,28.693359 c -8.74367,0.161988 -17.28951,2.566011 -25.30859,5.933594 -10.95085,4.473366 -21.32905,10.211454 -31.42892,16.339416 -0.52379,0.315152 -1.02432,0.761045 -1.65972,0.448848 -7.12101,-1.342128 -14.28448,-2.685577 -21.55189,-2.819183 -13.62016,-0.395151 -27.27944,2.688464 -39.52878,8.6217 -13.0476,6.293845 -25.53217,13.696588 -37.65343,21.614743 -2.1969,1.396243 -4.29937,2.721685 -6.53664,4.044476 -5.70006,-4.800602 -10.83489,-10.288058 -17.01536,-14.503151 -7.51156,-5.310115 -16.21024,-8.786418 -25.18545,-10.682533 -11.60982,-2.574399 -23.52173,-3.181553 -35.32849,-4.277207 -1.49952,0.04865 -2.79989,0.90415 -4.20827,1.325443 -7.49054,2.840438 -15.19963,5.465081 -22.20188,9.487057 -9.50947,5.312103 -18.61175,11.309274 -27.83266,17.097983 -1.90409,1.208224 -3.80818,2.416449 -5.71226,3.624674 -8.34795,-0.05725 -16.70991,-0.500647 -25.04911,0.06028 -7.95063,0.547939 -15.8631,2.216217 -23.18922,5.400821 -7.48224,3.16152 -14.3342,7.580851 -21.12886,11.984206 -5.87771,-5.598677 -11.81726,-11.21527 -18.64616,-15.657534 -8.06446,-5.357822 -17.27562,-8.958797 -26.83268,-10.507459 -10.64815,-1.825707 -21.50435,-1.517271 -32.24915,-0.973562 -3.37386,0.147372 -6.74783,0.292409 -10.12162,0.441291 -4.99641,3.967767 -9.97374,7.98503 -14.45714,12.537435 -4.07793,4.043751 -8.0846,8.204538 -11.47091,12.854649 -2.88566,4.24978 -5.29169,8.79891 -7.81001,13.26982 -3.39781,6.21453 -6.634,12.53578 -10.57053,18.43575 -0.65509,0.98454 -1.47002,2.15982 -2.21948,3.19683 -4.87613,6.74782 -10.54201,12.86669 -16.06395,19.04159 -1.64374,1.83531 -3.29179,3.66916 -4.93532,5.50572 0.44281,6.15279 0.51122,12.36519 1.79237,18.42296 1.48226,7.91616 4.14154,15.53798 6.34746,23.26721 3.53501,11.94168 6.96671,23.87602 9.96047,35.98308 1.11067,4.60802 1.95419,9.30032 2.13016,14.0455 0.0344,0.77082 0.0567,1.84021 0.0472,2.72969 -0.007,5.75578 -1.17516,11.5242 -3.63245,16.74177 -0.90102,1.89676 -1.87704,3.75701 -2.79166,5.64768 -19.19668,0.64022 -38.37916,1.36369 -57.59883,1.23633 -1.79453,0 -3.58906,0 -5.38359,0 0.81763,13.66595 1.62582,27.33244 2.41601,41 -25.20898,0 -50.41796,0 -75.62695,0 -0.60959,22.48191 -1.12352,44.94578 -2.39054,67.40291 -0.21957,4.48461 -0.49579,8.97261 -0.54678,13.46102 0.0818,1.08376 0.24057,2.16056 0.35334,3.24154 2.68959,0.62742 5.4523,0.76733 8.20459,0.77999 32.04433,0.75628 64.09657,1.14266 96.14612,1.62318 30.31081,0.38182 60.62141,0.86914 90.93482,0.96442 1.20929,-0.0601 2.47312,0.0614 3.6422,-0.26017 2.56877,-0.91677 4.69859,-3.54535 4.27277,-6.36932 -0.8995,-14.02024 -2.00993,-28.01189 -2.84699,-42.03693 12.90094,0.39593 25.77771,0.67389 38.66407,1.24414 -1.66837,5.98939 -3.39534,11.96322 -4.82824,18.01508 -1.52956,6.3084 -3.00519,12.65152 -3.80422,19.09975 -0.52552,5.12323 0.55386,10.59523 3.86841,14.65245 2.11692,2.65416 4.77376,4.84571 7.58631,6.72296 2.038,1.17151 4.90403,0.88006 6.41589,-1.00979 1.71657,-1.74816 2.8896,-4.43373 1.90984,-6.83864 -1.24997,-3.1932 -4.32836,-5.07267 -6.30223,-7.75291 -0.80892,-1.15409 -0.51566,-2.64436 -0.58324,-3.96732 0.14624,-5.23147 1.53755,-10.31727 2.74462,-15.37866 2.04733,-7.95247 4.35513,-15.83472 6.57489,-23.74018 22.49304,0.45494 44.98784,0.8312 67.47851,1.39648 0.69275,21.21252 1.16274,42.47982 1.65696,63.71743 0.11813,5.48644 0.22483,10.97309 0.30007,16.46031 -41.25757,-0.61294 -82.51146,-1.44576 -123.76606,-2.22834 -37.36393,-0.71449 -74.72758,-1.4438 -112.09136,-2.1662 -16.09691,15.50221 -32.2134,30.95236 -48.52148,46.22461 -14.63726,-0.89717 -29.35139,-1.63722 -43.89649,-2.77929 -1.22587,-0.10146 -2.34347,-0.19944 -3.5625,-0.31641 -0.56445,-6.19706 -0.951003,-12.31581 -1.322972,-18.55633 -0.286583,-4.66643 -0.477664,-9.4382 -0.652614,-14.15292 -0.174856,-2.06175 -0.515594,-4.27647 -1.843958,-5.92932 -1.662658,-1.60087 -4.074763,-1.76821 -6.208483,-2.28317 -10.58241,-2.0842 -21.26662,-3.58547 -31.929575,-5.18614 -14.83666,-2.18633 -29.693604,-4.24513 -44.505099,-6.59477 -1.97684,-0.4502 -4.3381564,-0.44975 -5.8634678,1.08546 -1.8209705,1.77553 -1.8234725,4.56901 -1.375,6.90039 0.6401277,2.73025 3.2443038,4.67955 5.9887248,4.88697 11.596722,1.85993 23.236285,3.45463 34.855109,5.16541 12.66423,1.82035 25.330401,3.62714 37.99601,5.43786 0.654545,9.58212 1.199736,19.17247 1.697266,28.74805 -4.259102,-0.45716 -8.518409,-0.91239 -12.777344,-1.3711 0,15.3737 0,30.7474 0,46.1211 4.293014,0.45986 8.585933,0.92061 12.878906,1.38085 0.389759,7.55178 0.783152,15.20935 1.001953,22.70313 0.159096,6.15036 0.114807,12.30331 0.121094,18.45508 3.054721,0.0274 6.109833,0.0253 9.164062,0.0918 1.200168,0.0361 2.655148,0.0818 3.952238,0.13809 19.22974,0.75048 38.48683,1.63376 57.68494,2.633 1.06055,0.0605 2.12126,0.11722 3.18118,0.1879 2.6721,4.9093 5.13666,9.998 8.69336,14.35547 7.42165,9.45503 18.07995,16.58973 29.97257,18.84084 8.01446,1.51672 16.59047,0.78978 23.98223,-2.78074 4.70042,-2.35382 8.34876,-6.50161 10.4883,-11.26658 3.05675,-6.50482 4.24761,-13.67003 5.34206,-20.7154 0.49398,-3.47653 0.89014,-6.96629 1.26953,-10.45703 5.17057,0 10.34114,0 15.51172,0 0.26948,1.95042 0.46954,3.84567 0.60091,5.75262 0.27306,3.94149 0.11095,7.89569 0.15495,11.84308 14.10452,0.3764 28.20346,0.97181 42.32265,1.10402 3.84724,0.009 7.71013,0.086 11.54258,-0.2798 2.49934,-0.45075 4.5191,-2.65126 4.75195,-5.18164 0.55601,-3.67642 0.25648,-7.40848 0.21,-11.10873 -0.23983,-8.91681 -0.57809,-17.83111 -0.87211,-26.74674 4.02207,0.39209 8.04266,0.80355 12.05469,1.28907 -0.003,8.5309 -0.0202,17.1181 1.47698,25.54641 1.22879,7.45309 3.50534,14.88565 7.85198,21.14275 4.1708,6.21596 9.35806,11.71804 15.07742,16.52996 5.37979,4.38393 11.43322,7.84567 17.54479,11.09338 1.94793,0.92082 3.8654,1.99769 5.97071,2.50976 1.4686,0.34341 2.87011,-0.31409 4.31865,-0.42786 9.01451,-1.24658 18.2029,-1.66874 26.97841,-4.26012 6.24967,-1.79392 12.20105,-4.80096 17.05748,-9.16145 5.70533,-4.99647 10.15768,-11.30087 13.56773,-18.04287 0.59779,-1.19538 1.15889,-2.40866 1.76132,-3.60184 3.32682,0 6.65365,0 9.98047,0 3.22433,5.02188 6.51374,10.05016 10.64569,14.38585 12.14208,13.15141 29.01184,21.9753 46.84796,23.92419 3.53172,0.48793 7.21241,0.29561 10.54812,-1.04389 8.92563,-3.10045 17.63142,-7.52386 24.27919,-14.3696 5.88305,-6.04242 9.8677,-13.65564 12.7149,-21.52986 0.24626,-0.45314 1.03158,-0.20398 1.50607,-0.31849 3.10187,-0.0623 6.20506,-0.0464 9.30768,-0.0482 3.42212,5.628 6.78789,11.32049 10.93704,16.45562 2.59108,3.34456 5.58575,6.40835 9.12053,8.75953 7.98471,5.57152 17.22464,9.10585 26.65532,11.34345 2.28441,0.55899 4.56604,1.12898 6.8457,1.70703 8.45711,-2.58518 17.02802,-4.8255 25.34571,-7.84571 5.21553,-1.95125 10.28097,-4.73232 13.94198,-9.01848 4.42043,-4.99482 7.48087,-10.97446 10.84159,-16.68757 0.89571,-1.56348 1.79142,-3.12695 2.68713,-4.69043 4.36263,-0.007 8.72526,-0.013 13.08789,-0.0195 4.15148,5.63673 8.25847,11.36668 13.34828,16.21222 7.30297,7.14668 16.22187,12.57952 25.84313,15.9909 6.06143,2.16421 12.36111,3.52948 18.58398,5.13086 10.81841,-5.93955 22.04252,-11.37812 31.708,-19.15401 5.01233,-4.08576 9.38607,-9.1742 11.74267,-15.26146 0.26919,-0.6405 0.54065,-1.27999 0.80519,-1.92242 6.8539,0.001 13.70995,-0.003 20.5625,0.002 3.35137,6.3556 7.96709,11.9745 13.0957,16.97461 2.58118,2.4886 5.54483,4.56234 8.76693,6.1349 7.9689,4.08794 16.64503,6.75599 25.49089,8.09948 2.63314,0.39197 5.35968,0.45147 7.92594,-0.35345 2.84973,-0.85383 5.56814,-2.09039 8.29748,-3.26188 6.46819,-2.91439 12.44964,-7.00465 17.20963,-12.29264 6.78705,-7.30981 11.82285,-15.98308 17.18804,-24.33031 36.29292,0.75231 72.58495,1.54878 108.87499,2.42968 -0.2455,6.53256 -0.4905,13.06512 -0.7363,19.59766 4.4557,0 8.9114,0 13.3672,0 0.1186,-6.47326 -0.1768,-12.95885 0.2949,-19.42187 4.3587,-0.21331 8.7223,0.10228 13.0793,0.23914 2.5754,0.10109 5.1503,0.21203 7.7254,0.31945 0.1952,4.42123 0.3912,8.84242 0.5859,13.26367 7.8657,0.16436 15.7297,0.52382 23.5978,0.50298 2.9316,-0.042 6.1831,-0.2047 8.4882,-2.25688 1.9186,-1.78337 2.3091,-4.54509 2.2413,-7.03623 0.01,-0.53018 0,-1.06049 0.01,-1.59073 2.2551,0.0505 4.5064,0.25588 6.7363,0.59375 -0.4605,3.25282 -0.5494,6.58822 0.1809,9.81011 1.1302,5.56429 3.5931,10.74745 6.2547,15.7231 4.5533,7.75665 12.7034,13.03735 21.4375,14.83203 2.5372,0.55155 5.1553,1.20175 7.7571,0.71369 4.4364,-0.64258 8.7463,-1.95052 13.0053,-3.31636 3.2526,-1.05267 6.3683,-2.61737 8.932,-4.90548 4.3972,-3.71003 8.0757,-8.26291 10.8909,-13.27308 1.0396,-1.91768 1.8233,-3.95763 2.6432,-5.97463 14.8457,-0.4728 29.6548,-1.08004 44.5105,-1.21986 1.1879,-0.004 2.3758,-0.002 3.5637,-8.5e-4 2.3747,5.33799 4.6685,10.83464 8.483,15.34003 4.0339,4.91685 9.6965,8.50657 15.9332,9.83917 4.2514,0.96278 8.7432,1.33808 13.0088,0.24094 6.0367,-1.47484 11.548,-4.56437 16.6141,-8.09006 5.8254,-4.10636 10.9787,-9.19296 14.9782,-15.10277 0.7112,-0.99174 1.4197,-1.98695 2.1292,-2.98121 15.8607,-0.50392 31.6735,-1.16035 47.5461,-1.24805 1.1103,0 2.2206,0 3.3308,0 1.9677,5.94676 4.5597,11.87631 8.9034,16.49155 1.8912,2.0444 4.3009,3.55277 6.9196,4.48017 4.5182,1.76663 9.2577,3.01254 14.076,3.59172 3.9412,0.2571 7.661,-1.33705 11.31,-2.59274 5.7477,-2.1452 11.1513,-5.32156 15.5395,-9.6384 3.6205,-3.45253 6.9285,-7.21678 10.2135,-10.98454 0.6123,-0.73218 1.1999,-1.48469 1.7802,-2.24229 18.0078,-0.43945 36.0157,-0.87891 54.0235,-1.31836 1.1694,3.39498 3.0721,6.50152 5.4647,9.17087 4.8694,5.55023 11.2635,9.72065 18.2228,12.14856 3.0804,1.05373 6.4218,1.82713 9.6618,1.05532 2.9314,-0.65055 5.706,-1.84604 8.4947,-2.93255 6.6459,-2.77168 12.8137,-6.90376 17.4011,-12.50417 4.4521,-5.2648 7.4814,-11.51144 10.5107,-17.65287 4.1845,-0.36907 8.3513,-0.85447 12.5489,-1.0918 0.032,2.47103 -0.2412,5.1351 0.9621,7.39404 1.1032,1.917 3.4146,2.76207 5.5425,2.63447 2.4768,0.0687 5.2268,-1.14347 6.1008,-3.60859 0.6043,-1.55374 0.3843,-3.23181 0.5332,-4.78711 0.8478,-16.10876 1.7501,-32.21598 2.6348,-48.33203 8.2704,-0.14676 16.4504,0.2252 24.6971,0.55844 3.5835,0.0867 7.2305,0.47149 10.7677,-0.29477 2.3245,-0.42601 4.4246,-1.89878 5.5205,-4.00542 1.2063,-2.22874 1.2569,-4.84114 1.4665,-7.30825 0.3099,-7.41615 0.8516,-14.82072 1.2748,-22.23125 -12.9577,0 -25.9154,0 -38.8731,0 1.5461,-17.88764 2.8799,-35.79389 4.3121,-53.69143 1.3787,-17.53244 2.7662,-35.06578 4.0496,-52.6046 0.107,-1.71036 -0.9425,-3.37817 -2.5534,-3.9842 -1.851,-0.78097 -3.9122,-0.6948 -5.8778,-0.8754 -11.0905,-0.60587 -22.2019,-0.65051 -33.3051,-0.84646 -34.9816,-0.50306 -69.9673,-0.6879 -104.9477,-1.28502 0.6016,-30.12158 1.8567,-60.22764 2.2757,-90.3531 -0.036,-2.08456 0.1146,-4.1874 -0.1585,-6.25823 -0.1437,-1.25835 -1.0946,-2.2193 -2.2246,-2.6875 -1.7598,-0.77708 -3.74,-0.64945 -5.616,-0.84856 -14.4245,-0.89502 -28.8813,-0.99831 -43.325,-1.38541 -19.096,-0.43586 -38.1906,-0.93525 -57.2855,-1.41642 -1.9437,4.33163 -4.087,8.56821 -6.3028,12.76563 -1.9676,3.96425 -3.083,8.51427 -2.2137,12.92551 0.9714,5.7174 3.8265,10.85154 6.2986,16.02235 0.1574,0.47248 0.7384,1.206 0.6511,1.52765 -1.6951,-0.0523 -3.5807,0.14535 -5.0181,-0.93772 -2.334,-1.74915 -4.453,-3.76857 -6.6506,-5.68403 -4.9869,-4.44615 -9.8576,-9.0201 -14.7196,-13.60181 -13.2948,0.47932 -26.5899,0.95267 -39.8848,1.42969 -7.5293,-3.98367 -15.0584,-7.96779 -22.5879,-11.95117 -15.5051,-0.48398 -31.0104,-0.96481 -46.5156,-1.44532 -11.8053,4.59899 -23.7179,8.94266 -35.4005,13.87304 -2.1755,0.94957 -4.4216,1.82309 -6.4001,3.14602 -0.8272,0.55936 -1.3282,1.44456 -1.6486,2.35594 -0.9631,1.72946 -0.9324,3.78005 -1.2398,5.68735 -1.4485,12.17131 -1.794,24.39568 -2.9692,36.57163 -0.3056,2.75983 -0.4794,5.55179 -1.0918,8.26446 -0.7578,1.148 -1.7648,2.16283 -2.6325,3.24894 -6.5699,7.75151 -13.3054,15.34775 -19.973,23.01278 -13.5304,0.0678 -27.0707,-0.19318 -40.5918,0.42383 -1.7322,0.18589 -3.5566,0.11467 -5.1855,0.80469 -1.1629,0.5525 -2.1394,1.62569 -2.2305,2.95117 -0.4122,2.56201 -0.3826,5.17053 -0.5646,7.75477 -1.439,29.21948 -2.0451,58.47327 -3.4862,87.69249 -0.1119,0.52724 0.2075,1.50762 -0.6575,1.26827 -6.6809,0.23185 -13.368,0.1121 -20.051,0.0617 -0.9045,0.25537 -0.8243,-0.42919 -0.747,-1.11108 1.4508,-46.4008 2.9972,-92.7988 4.7138,-139.19053 0.06,-1.46584 0.1195,-2.93168 0.1792,-4.39752 20.3536,-0.74119 40.783,-0.82292 61.1554,-1.73742 2.46,-0.17528 4.9824,-0.0727 7.3739,-0.75281 1.7719,-0.67773 2.3253,-2.69612 2.5664,-4.39258 1.5087,-12.77725 2.4699,-25.61437 3.4791,-38.43981 0.5459,-7.74214 1.2159,-15.48453 1.3646,-23.24582 -0.1221,-1.91123 -1.9065,-3.3999 -3.7512,-3.58063 -3.9785,-0.38727 -7.9841,-0.45845 -11.9775,-0.61347 -28.7394,-0.78103 -57.4909,-0.9249 -86.2375,-1.28032 -40.67908,-0.45478 -81.35732,-0.97928 -122.03566,-1.49425 0.0209,6.48834 0.10953,12.99335 -0.59092,19.45447 -0.0937,1.00702 -0.20471,2.01228 -0.30947,3.01819 -60.77824,-0.71113 -121.55581,-1.48207 -182.33203,-2.34961 -0.43023,-4.1763 -1.25029,-8.33622 -2.85125,-12.23214 -3.05659,-7.84558 -8.02139,-14.76509 -13.35188,-21.21512 9.03038,2.3592 18.04816,4.78841 27.15181,6.84369 2.48827,0.41533 5.17194,-0.80399 6.36087,-3.05764 1.75065,-2.97302 0.69164,-7.375 -2.50682,-8.88957 -2.12246,-0.90633 -4.42489,-1.25884 -6.62852,-1.91493 -14.41346,-3.7641 -28.83851,-7.48303 -43.26015,-11.21593 -2.79521,-1.9101 -5.74373,-3.85698 -8.44336,-5.74414 8.51827,-1.1115 16.87,-3.71018 24.36095,-7.94503 8.88471,-4.94235 16.55332,-11.75453 23.60918,-19.0098 1.0143,-1.02766 2.02622,-2.05766 3.03964,-3.08619 5.1134,3.19545 10.48101,6.03988 16.2087,7.96898 1.0001,0.36427 2.01533,0.68573 3.01591,1.0486 -2.58403,6.10062 -6.19073,11.70458 -8.82709,17.77869 -0.89312,2.06387 -1.07939,4.72619 0.49472,6.51708 1.38549,1.5539 3.32829,2.55214 5.30625,3.1215 1.94,0.40808 4.09161,-0.67255 4.79571,-2.55184 3.92361,-7.09372 7.4488,-14.40918 11.61806,-21.36559 0.27754,-0.41296 0.52809,-0.89616 0.86039,-1.24203 3.80536,0.1819 7.58782,-0.46809 11.33984,-1.01789 6.27307,-0.97694 12.48073,-2.4798 18.39045,-4.82462 7.58303,-2.87642 14.81734,-6.74058 21.21439,-11.74552 6.55384,-5.0327 12.31856,-10.97787 18.2604,-16.69517 18.96624,2.20718 37.99304,4.45156 57.11719,4.37109 7.30471,-0.0953 14.70229,-0.42773 21.78089,-2.38033 6.59557,-1.91172 12.73262,-5.11887 18.60894,-8.61986 3.79275,-2.29284 7.34942,-4.9443 10.89542,-7.59323 1.88095,-1.34351 4.14272,-1.94275 6.39078,-2.31789 5.98734,-1.12431 12.04259,-1.89563 17.96937,-3.33327 12.92608,-2.97728 25.45589,-7.97724 36.51696,-15.34994 7.12495,-4.69106 13.6676,-10.35043 19.65603,-16.33907 1.2487,-1.22005 2.4974,-2.4401 3.7461,-3.66015 14.2654,-0.51451 28.6129,-0.67057 42.8574,-2.0214 6.0206,-0.71123 12.004,-3.25426 16.0447,-7.88507 4.1164,-4.67242 6.0341,-10.866939 6.6109,-16.974997 0.4428,-4.516812 0.3786,-9.10086 -0.3141,-13.588457 -0.78,-4.455402 -2.9139,-8.636606 -6.0297,-11.912092 -2.3808,-2.592165 -5.006,-4.954744 -7.6944,-7.221167 -2.8661,-2.249155 -6.3729,-3.570891 -9.9724,-4.024759 -5.7206,-0.864865 -11.5188,-0.959617 -17.2849,-1.305714 -8.842,-0.417387 -17.6979,-1.002178 -26.5519,-0.64382 -4.9768,0.25028 -9.99639,1.240845 -14.41639,3.623748 -5.19367,2.677862 -9.73136,6.420073 -14.21977,10.117736 -2.44463,2.068511 -4.82522,4.217472 -7.38104,6.15044 -4.18026,-2.217345 -8.13481,-4.83551 -12.35298,-6.98598 -12.9588,-6.902735 -26.29517,-13.07979 -39.80204,-18.828987 -7.12515,-2.996661 -14.30466,-5.921817 -21.73158,-8.091637 -9.93221,-2.869174 -20.40154,-4.273539 -30.71468,-3.058416 -11.89009,1.31893 -23.21585,5.497713 -34.17926,10.098083 -5.14998,2.118851 -10.29453,4.254047 -15.49485,6.247797 C 804.29389,44.630381 794.00954,37.216049 782.26988,32.661892 775.62527,30.054338 768.53379,28.537956 761.375,28.693359 Z m 0.55664,12.808594 c 1.1586,0.01549 2.41379,0.06409 3.44121,0.171339 1.31042,0.119818 2.91252,0.351344 4.32681,0.66869 8.5367,1.820178 16.28977,6.080853 23.66972,10.594415 8.66568,5.347923 16.80255,11.48626 25.18592,17.253985 7.48081,5.193864 14.97829,10.368731 22.62634,15.313524 2.20474,1.371027 4.52469,2.984857 7.2207,3.001953 2.1335,-0.07041 3.94349,-1.560699 4.91658,-3.385393 1.14443,-1.63924 1.88482,-3.859982 0.96334,-5.763311 -1.11686,-1.669659 -3.04948,-2.44984 -4.59279,-3.644022 -7.46249,-5.106558 -15.03224,-10.020164 -22.38869,-15.285399 6.2594,-2.850427 12.63543,-5.254733 19.07556,-7.647807 5.75548,-2.114559 11.6202,-4.108069 17.74233,-4.807209 7.70823,-0.97156 15.54478,-0.208109 23.07679,1.588495 6.9896,1.647007 13.8271,3.917244 20.43622,6.723214 9.5846,3.980773 18.92786,8.355906 28.24694,12.887895 7.43568,3.639533 14.79583,7.356714 22.05939,11.424245 1.23968,0.688074 2.47494,1.384485 3.69285,2.110464 -1.1018,3.598793 -2.66031,7.036951 -4.07617,10.519531 -4.8626,11.513788 -9.86264,23.062938 -14.94127,34.518698 -1.18518,2.66959 -2.38373,5.32648 -3.62186,7.90369 -1.04339,2.13076 -2.15699,4.46393 -3.41661,6.5915 -0.32999,0.46008 -1.00947,0.25782 -1.47079,0.43171 -3.49205,0.57792 -7.00889,0.9908 -10.51236,1.48604 -6.01002,-3.84226 -11.9114,-7.85946 -18.03163,-11.52502 -2.01876,-1.20194 -4.44011,-2.35465 -6.82189,-1.57068 -2.33495,0.77222 -3.63582,3.08365 -4.55078,5.20898 -0.69999,1.88544 -0.043,4.26804 1.78486,5.25064 5.0147,3.40548 10.06904,6.7456 15.11553,10.10288 -1.32722,0.98767 -2.57766,1.87312 -3.98437,2.81055 -5.18029,3.31576 -10.78861,5.9961 -16.66226,7.83261 -3.74772,1.19343 -7.65094,1.84884 -11.58014,1.99011 -4.17782,0.22144 -8.50932,0.17712 -12.5994,0.0991 -7.55465,-0.21539 -15.11848,-0.68646 -22.61914,-1.33008 -11.23528,-0.96972 -22.42496,-2.37875 -33.63281,-3.60742 -6.32338,6.03447 -12.35177,12.39983 -19.10066,17.9716 -5.93733,4.92119 -12.54284,9.09907 -19.76116,11.86725 -5.75819,2.18931 -11.7633,3.76258 -17.8667,4.61037 -7.6107,1.06018 -15.50026,0.14373 -22.60708,-2.80595 -8.69556,-3.54982 -16.38349,-9.10152 -23.70418,-14.89849 -5.10701,-4.04226 -9.92853,-8.42761 -14.9848,-12.53022 -1.74282,-1.33593 -3.57525,-2.74793 -5.75561,-3.24327 -2.08428,-0.41589 -4.25174,0.53283 -5.54988,2.17576 -1.41122,1.46557 -2.47033,3.74869 -1.50197,5.726 0.81195,1.70445 2.40623,2.82346 3.69915,4.13765 6.00553,5.56298 12.32011,10.77675 18.53132,16.10454 -1.99374,2.39014 -4.39878,4.3952 -6.71187,6.46475 -1.47873,1.28619 -2.87218,2.4763 -4.4182,3.73013 -5.53138,4.49389 -11.35324,8.81318 -18.0335,11.44281 -5.67193,2.28434 -11.85154,2.76963 -17.89808,3.09317 -1.23602,0.0621 -2.63567,0.1107 -3.92234,0.14425 -4.52749,0.0864 -9.10454,0.4058 -13.59396,-0.34338 -4.88767,-1.03179 -9.14836,-3.80756 -13.32739,-6.41205 -8.63374,-5.56642 -16.74461,-11.88943 -24.89312,-18.13103 -5.44134,-4.19737 -10.87365,-8.40638 -16.31091,-12.60975 -5.94669,2.87373 -12.01085,5.5041 -17.86328,8.61328 -7.37442,3.97487 -14.27945,8.75281 -20.94208,13.81602 -4.5728,3.2829 -9.10424,6.82544 -14.42778,8.81445 -3.40739,1.17488 -6.99279,1.84493 -10.58663,2.06616 -4.26638,0.0784 -8.53425,-1.09357 -12.59458,-1.88722 -7.00204,-1.49825 -13.72506,-4.04768 -20.23534,-6.99309 -6.89123,-3.08295 -13.88067,-6.15429 -21.33424,-7.589 -6.48378,-1.29677 -13.21435,-1.29079 -19.69637,0.0163 -9.64503,1.87817 -18.71851,5.82871 -27.58793,9.94195 -5.81044,2.73284 -11.5466,5.60179 -17.31576,8.40234 -13.13712,-5.50201 -26.31804,-10.83166 -39.34241,-16.58358 -1.37125,-0.74818 -2.99412,-1.2494 -4.50636,-1.00869 -4.75068,0.32988 -9.39785,1.45446 -14.04198,2.44715 -8.77062,1.99719 -17.50719,4.22265 -26.01483,7.16025 -4.02063,1.42049 -7.70754,3.66869 -10.94427,6.43179 -5.65975,4.70724 -10.09151,10.70321 -13.78553,17.02832 -0.63414,0.99456 -1.21628,2.06534 -2.06384,2.88805 -6.61492,-0.42896 -13.25995,-0.78645 -19.84179,-1.30274 -1.50249,-0.12713 -3.14046,-0.25446 -4.69336,-0.40234 -2.62323,-8.82511 -5.07617,-17.70105 -7.67285,-26.53349 -1.68094,-5.83548 -3.41936,-11.65462 -5.05957,-17.50167 -0.24328,-0.90813 -0.52504,-1.93759 -0.75373,-2.86128 -0.86805,-3.49523 -1.72706,-6.90812 -2.09843,-10.50196 -0.10311,-1.62198 -0.23019,-3.31415 0.23106,-4.88871 0.88694,-1.89504 2.43136,-3.37015 3.74307,-4.96966 5.61855,-6.33274 11.23725,-12.70417 15.98228,-19.73381 4.85904,-7.08817 8.89555,-14.68657 12.93868,-22.25624 4.19038,-7.60964 9.15069,-14.88931 15.49458,-20.87657 3.24961,-3.123417 6.72129,-6.001602 10.08944,-8.9938 3.75827,-0.334219 7.51026,-0.793033 11.28711,-0.857422 1.61741,-0.04286 3.45468,-0.08126 5.15664,-0.08945 2.49017,-0.0034 4.98013,0.04366 7.46836,0.142186 0.76658,0.04683 1.8308,0.09068 2.71515,0.146546 4.52706,0.259758 9.04266,0.839323 13.45477,1.90033 0.33817,0.08529 1.10099,0.276695 1.60212,0.409897 7.23043,1.887567 13.98406,5.384294 19.88684,9.944005 1.73795,1.32035 3.38972,2.71337 4.97784,4.11094 0.87123,0.78455 1.92475,1.73606 2.84426,2.61157 1.12424,1.06516 2.223,2.15693 3.34324,3.22632 -4.58975,3.63647 -8.53672,8.00702 -12.2842,12.48565 -3.20619,3.84843 -6.14614,7.99007 -8.0392,12.6564 -3.05186,6.89177 -5.70251,13.97214 -7.77659,21.2202 -0.45292,1.82609 -1.00782,3.82805 -0.3297,5.6651 1.01357,2.43328 3.85693,3.44937 6.32442,3.39024 2.44464,-0.10527 4.50822,-1.91792 5.42995,-4.10923 1.74785,-3.57228 2.50012,-7.51621 3.95071,-11.20484 3.41118,-9.32889 8.29514,-18.32867 15.48469,-25.29208 2.08798,-1.97524 4.36702,-3.73602 6.68132,-5.43449 8.27036,9.22387 15.93135,18.97586 24.20645,28.19582 1.90312,2.0611 3.80664,4.15623 5.99427,5.91782 2.42208,1.77767 6.28569,0.89626 7.66498,-1.78401 1.15115,-1.95297 0.50104,-4.32704 -0.39738,-6.23916 -1.77579,-3.48722 -4.25365,-6.55309 -6.61507,-9.65394 -5.38155,-6.82544 -11.07587,-13.39848 -16.7468,-19.98239 -1.24902,-1.43784 -2.49805,-2.87567 -3.74707,-4.31351 7.12928,-4.28786 14.3238,-8.65994 22.29426,-11.21541 2.71925,-0.901355 5.50793,-1.578151 8.32488,-2.093184 0.40719,-0.07085 1.18432,-0.207237 1.73792,-0.284126 5.43862,-0.815156 10.96008,-0.834951 16.44372,-0.608452 0.66625,0.04011 1.6531,0.08499 2.44303,0.138843 5.25494,0.347683 10.51823,0.873546 15.67506,1.967521 3.5246,0.844628 6.81234,2.428078 10.12214,3.866288 8.09968,3.77489 15.96517,8.06282 23.51522,12.84358 5.62336,3.68034 10.91794,7.82924 16.43944,11.65669 6.58564,4.69558 13.24848,9.28103 19.88519,13.90403 12.73482,-0.0456 25.47279,0.13846 38.20508,-0.16992 8.50176,-0.23937 17.05985,-0.99538 25.25976,-3.36914 2.27166,-0.55959 4.86207,-1.48116 5.88273,-3.78312 0.83957,-1.76555 0.37565,-3.73594 0.0592,-5.56275 -0.84725,-6.08736 -1.25495,-12.2528 -1.81217,-18.42315 -0.4426,-5.24087 -0.89167,-10.48127 -1.42858,-15.713403 9.99972,-6.426862 19.94059,-12.979491 30.43008,-18.594081 7.08586,-3.86846 14.44295,-7.561513 22.01498,-10.576679 5.22523,-2.152847 10.80413,-3.367046 16.43404,-3.774635 2.04114,-0.161985 4.34865,-0.26439 6.4998,-0.263541 2.51519,-0.01669 5.05541,0.08849 7.48849,0.271996 1.49557,0.111131 3.2648,0.287275 4.86133,0.494221 3.98919,0.543196 7.97782,1.210832 11.86226,2.280703 0.57305,0.182818 1.32122,0.411629 1.71694,0.57521 3.15358,1.163617 5.87403,3.197868 8.69404,4.979384 11.46281,7.703921 22.43682,16.102601 33.26692,24.664263 11.27329,8.811172 22.72475,17.444372 34.94957,24.907172 5.05403,3.11676 10.06019,6.32986 15.2884,9.15213 2.09945,1.15956 4.76609,2.08101 7.06347,0.93659 1.9242,-0.98784 3.04662,-2.99077 3.86762,-4.90598 0.74364,-1.88428 0.13717,-4.36618 -1.76914,-5.29857 -4.87705,-3.10608 -9.89666,-5.98112 -14.82021,-9.01306 -3.1548,-1.92809 -6.40002,-3.95123 -9.50673,-6.00105 -14.98144,-9.856363 -28.56281,-21.623445 -43.01566,-32.201275 -6.68924,-5.005727 -13.52826,-9.809662 -20.52541,-14.374986 5.79807,-3.300433 11.83158,-6.166839 17.86439,-9.008362 4.40755,-2.011353 8.83603,-3.999178 13.38756,-5.663513 3.87284,-1.21519 7.93354,-1.809117 11.98437,-1.949218 0.31185,-0.0025 0.6237,-0.0055 0.93555,-0.0078 z M 1007.709,65.21875 c 12.3449,0.04934 24.6118,0.300188 36.9241,1.177624 1.5045,0.102251 3.0089,0.204501 4.5134,0.306751 3.2292,3.220475 6.8912,6.120722 9.352,10.015597 1.7847,2.825585 2.6325,6.216815 2.3149,9.550004 -0.2711,3.787769 -1.3509,7.491291 -2.8512,10.965272 -0.9381,2.0029 -2.618,3.665072 -4.7415,4.362502 -2.7885,1.08833 -5.8266,1.27807 -8.7121,1.56036 -1.0415,0.10533 -1.867,0.16737 -2.9384,0.24255 -10.3313,0.72088 -20.6424,0.84008 -30.9725,1.19629 -0.9127,-0.0209 -1.9019,0.15272 -2.7664,0.01 -7.92235,-7.801769 -15.71366,-15.790697 -24.43864,-22.71165 -1.02135,-0.79016 -2.06724,-1.548201 -3.09969,-2.323478 5.00986,-4.286672 10.07696,-8.562924 15.70223,-12.030518 1.89209,-1.163959 3.98276,-2.126339 6.244,-2.172715 1.7216,-0.131687 3.6703,-0.132138 5.4698,-0.148329 z m -474.30666,2.308594 c 4.10518,0.373502 8.1478,0.809671 12.28877,1.441691 1.67821,0.253557 3.59562,0.583332 5.35515,0.94544 7.66096,1.511758 15.20032,4.168823 21.63743,8.668621 6.27214,4.239003 11.4791,9.779567 16.9632,14.943604 0.70332,0.392254 0.41723,1.253343 0.55402,1.914049 0.81742,10.494751 1.65638,20.987871 2.41628,31.486981 -3.8166,1.07552 -7.81301,1.16238 -11.74219,1.46289 -1.19754,0.066 -2.6566,0.15019 -3.90596,0.20816 -8.18529,0.40324 -16.32379,0.60312 -24.53465,0.58322 -2.31305,-0.0232 -4.62712,-0.0452 -6.84455,-0.17614 -2.19337,-0.0877 -4.48851,-0.27185 -6.38284,-1.49963 -5.15573,-2.95267 -9.88226,-6.57514 -14.75061,-9.96473 -7.87435,-5.61364 -15.58722,-11.48759 -23.93336,-16.39916 -7.39191,-4.413367 -15.08371,-8.327819 -23.02108,-11.663824 6.97752,-4.530206 13.86907,-9.215662 21.07418,-13.384869 5.17141,-2.958053 10.77371,-5.027664 16.35174,-7.068037 2.31372,-0.832231 4.61471,-1.771918 6.93931,-2.528433 3.84506,0.343389 7.69011,0.686778 11.53516,1.030167 z m 440.33204,23.367187 c 5.32989,4.01125 10.43888,8.485428 15.2246,13.029299 2.35437,2.31212 4.77356,4.59045 6.80913,7.19441 0.0911,0.43282 -0.55942,0.81455 -0.7944,1.18719 -2.61745,2.51912 -5.45801,4.81202 -8.26035,7.13836 -8.97777,7.32923 -18.87999,13.70222 -29.81332,17.68363 -1.56249,0.58247 -3.14729,1.10368 -4.73988,1.59719 6.46548,-15.3913 13.13926,-30.75885 19.88613,-46.053798 0.33759,-0.755665 0.67259,-1.512495 1.01816,-2.264562 0.22331,0.16276 0.44662,0.325521 0.66993,0.488281 z M 580.25781,191.19141 c 2.13948,1.00068 3.93894,2.57966 5.82954,3.97057 6.68538,5.22365 13.30738,10.5325 20.20456,15.4772 6.33618,4.57156 12.84231,8.99119 19.91106,12.36154 2.70591,1.27942 5.55424,2.22604 8.44096,2.99641 5.91478,2.05386 11.25879,5.41282 16.47591,8.81297 8.753,5.85353 17.02574,12.47698 24.37772,20.02701 1.91602,2.04003 3.73127,4.17483 5.42236,6.40508 -5.21602,-0.79447 -10.56562,-0.79484 -15.77801,0.0259 -3.56961,0.57193 -7.05361,1.922 -9.85672,4.24288 -4.82986,3.74756 -8.3479,9.1517 -9.76761,15.10234 -14.09505,0 -28.19011,0 -42.28516,0 -1.02109,-4.73306 -1.5081,-9.58801 -2.9262,-14.22937 -0.62443,-1.79416 -1.47936,-3.88036 -3.46052,-4.50696 -1.54578,-0.50255 -3.20849,-0.3278 -4.80516,-0.54412 -10.18098,-0.79171 -20.34335,-1.9945 -30.56122,-2.17455 -1.64587,0.0479 -3.54434,0.10827 -4.70784,1.4511 -1.44046,1.62312 -1.64082,3.89071 -2.15625,5.91015 -0.87719,4.32761 -1.38713,8.71869 -2.23046,13.05274 -13.59725,-0.56587 -27.21656,-1.18029 -40.78516,-1.94141 -0.51244,-4.37307 -1.71345,-8.62088 -3.06777,-12.79809 -0.97111,-3.02997 -2.01632,-6.03559 -3.04161,-9.04761 -2.71964,-1.1714 -5.71254,-1.22794 -8.60312,-1.61481 -11.19482,-1.23216 -22.39337,-2.45712 -33.62027,-3.34844 -1.25435,-0.0744 -2.49817,0.12698 -3.73168,0.32653 -2.29301,5.39694 -4.06262,10.994 -6.03421,16.51176 -1.2705,3.65233 -2.541,7.30466 -3.8115,10.95699 -8.23268,-0.008 -16.37492,-0.43986 -24.61234,-0.84545 -1.8662,-0.0958 -3.7324,-0.19158 -5.59859,-0.28736 -1.89217,-9.82288 -3.78236,-19.64613 -5.67579,-29.46876 -11.84333,-0.65943 -23.67981,-1.45516 -35.52565,-2.05932 -2.85958,-0.0386 -5.80058,-0.1976 -8.57396,0.61597 -2.00792,0.81651 -2.87965,2.99505 -3.34194,4.95849 -2.03323,7.40626 -2.82765,15.0698 -4.19294,22.61137 -0.19101,1.15928 -0.3959,2.31624 -0.6116,3.47115 -14.55273,0 -29.10547,0 -43.6582,0 -2.67276,-3.48844 -5.03712,-7.21613 -6.97656,-11.16211 -0.29495,-0.59443 -0.80018,-1.65831 -1.05803,-2.2145 -1.52441,-3.26643 -2.60969,-6.70988 -3.52201,-10.19032 -1.76062,-6.28716 -3.63176,-12.54174 -5.48442,-18.80221 2.51527,-4.22979 5.06239,-8.49922 8.48597,-12.07339 2.88907,-3.10265 6.1576,-6.01621 10.08916,-7.7069 5.03168,-1.88082 10.26067,-3.15961 15.43723,-4.56886 5.82986,-1.48277 11.66533,-2.98485 17.58906,-4.04656 0.77081,-0.12573 1.55783,-0.30652 2.28993,0.0728 5.14702,1.69315 10.1583,3.76884 15.19626,5.75652 8.5811,3.45044 17.04633,7.20284 25.74751,10.34571 2.30073,0.78395 4.74026,1.63019 7.20199,1.26948 1.72177,-0.34085 2.98306,-1.64738 4.53134,-2.3737 6.48046,-3.49518 13.20203,-6.51762 19.89778,-9.57161 4.47361,-1.97252 8.94953,-3.97622 13.59237,-5.52149 1.63713,-0.51084 3.50791,-0.94048 5.07226,-1.1875 3.8849,-0.61652 7.83588,-0.47203 11.75544,-0.50792 2.86424,0.0461 5.78839,0.0791 8.51563,1.07039 3.63996,1.2479 7.08755,2.98188 10.62655,4.48103 8.28945,3.59069 16.73576,6.90946 25.4967,9.1645 1.50545,0.36073 3.03306,0.63648 4.57638,0.76856 1.72675,1.92271 4.52389,2.05995 6.93317,2.02206 5.5518,-0.10437 11.04487,-1.15077 16.42029,-2.48354 3.86402,-0.97446 7.69441,-2.31939 10.98823,-4.61297 6.28803,-3.99204 12.09498,-8.67538 18.2442,-12.86763 6.12421,-4.1321 12.46429,-8.01443 19.25201,-10.96417 0.48445,-0.16644 0.96663,-0.42471 1.46093,-0.51757 z m -311.68359,49.92382 c 3.92228,0.19246 7.94824,0.40251 11.8418,0.69141 3.12368,0.24249 6.2561,0.47715 9.34375,1.02539 2.8195,8.59163 4.41013,17.57595 7.87588,25.95456 2.11621,4.95965 5.08201,9.4848 7.95224,14.02786 -1.75589,1.07819 -3.58022,2.046 -5.38653,3.03616 -4.50907,2.21026 -9.67315,2.76986 -14.63312,2.38984 -3.22257,-0.22173 -6.32362,-1.17046 -9.36078,-2.21236 -4.75399,-1.551 -9.49287,-3.22514 -14.09613,-5.03004 2.02003,-4.01774 3.86279,-8.15557 4.94228,-12.53683 2.20334,-8.4944 2.02335,-17.43751 0.55122,-26.03827 0.0694,-0.43646 -0.5681,-1.5198 0.19917,-1.33729 0.25674,0.01 0.51348,0.0197 0.77022,0.0296 z m 116.48437,17.99024 c 5.97426,0.34055 12.02138,0.67271 18.00196,1.28515 1.56771,8.04167 3.13541,16.08334 4.70312,24.125 -2.88547,2.57558 -5.92593,5.08719 -9.46571,6.70753 -3.92238,1.74591 -8.45225,1.3111 -12.38813,-0.15032 -4.53688,-1.64991 -8.46508,-4.57104 -12.06413,-7.72713 1.26107,-8.20963 2.52214,-16.41927 3.78321,-24.6289 2.47656,0.12955 4.95312,0.25911 7.42968,0.38867 z m 85.06055,5.32422 c 8.30424,0.58633 16.52272,1.55216 24.82391,2.36404 0.72472,-0.0929 0.57335,0.91899 0.8699,1.36602 1.68433,4.77983 3.26569,9.80616 2.71159,14.93944 -0.4161,4.04407 -2.30882,7.86622 -5.16428,10.745 -2.02555,2.1163 -4.36424,3.96802 -6.95975,5.32959 -1.88748,0.61102 -3.83158,-0.21307 -5.65971,-0.6764 -5.33426,-1.57954 -9.87425,-5.03855 -13.71551,-8.96813 -1.88015,-1.89325 -3.60235,-3.93363 -5.39052,-5.91206 2.18355,-6.22949 4.29889,-12.46869 6.58788,-18.60137 0.0675,-0.69833 0.53394,-0.77845 1.15226,-0.63126 0.24808,0.015 0.49615,0.0301 0.74423,0.0451 z m 102.18555,8.27539 c 5.58088,0.40945 11.16087,0.83945 16.72851,1.4043 0.63616,3.56598 1.3839,7.13087 1.54102,10.75976 0.007,0.34268 0.0318,1.13001 0.0195,1.64063 0.0118,2.5642 -0.95576,5.20843 -3.01156,6.82928 -1.96352,1.73013 -4.35903,2.97533 -6.56653,4.18827 -0.4841,0.17716 -0.94561,0.648 -1.42911,0.66216 -2.24105,-1.40975 -4.0752,-3.35941 -6.00799,-5.14833 -2.99003,-2.91643 -6.07741,-5.75698 -8.77342,-8.95311 -0.4416,-0.48693 0.12229,-1.17159 0.13431,-1.74624 0.72007,-3.31015 1.15049,-6.67237 1.68164,-10.01563 1.89453,0.1263 3.78907,0.25261 5.6836,0.37891 z m 100.39453,0.78125 c 5.93604,0.0388 11.79694,1.59733 17.1211,4.18189 0.49653,0.22885 1.15907,0.3273 1.05855,1.00868 0.34342,2.26689 0.74572,4.37497 0.90433,6.67857 0.0934,2.28472 0.19934,4.90551 -1.44726,6.71875 -1.47294,1.46006 -3.58835,1.99119 -5.54688,2.4668 -1.8614,0.36396 -3.6315,0.67193 -5.52028,0.90962 -1.45281,-0.11459 -2.87949,-0.4764 -4.33519,-0.60494 -4.7745,-0.63294 -9.4953,-2.18821 -13.41059,-5.05063 -1.55519,-1.12527 -2.97274,-2.45119 -4.14409,-3.97476 0.91709,-3.74159 2.64805,-7.43814 5.56692,-10.03184 2.55821,-1.90249 5.88872,-2.15502 8.9651,-2.29439 0.26276,-0.003 0.52552,-0.006 0.78829,-0.008 z m 233.36523,3.40039 c 43.45431,0.16864 86.9069,0.61978 130.35915,1.06006 20.6432,0.22597 41.2871,0.438 61.928,0.82861 -0.5168,10.32149 -1.3035,20.73428 -2.0555,31.08754 -0.3637,4.80471 -0.7269,9.60997 -1.1867,14.4066 -18.9347,0.56755 -37.9581,0.80117 -56.9307,1.10619 -44.64545,0.66261 -89.29314,1.20633 -133.93399,2.14306 -1.42792,0.0283 -2.85585,0.0565 -4.28377,0.0847 0.20703,-15.19825 0.31076,-30.48243 0.71289,-45.625 0.0569,-1.69343 0.10429,-3.38719 0.17578,-5.08008 1.73827,-0.008 3.47656,-0.008 5.21484,-0.0117 z m 439.21485,12.48242 c 21.1995,0.21968 42.3967,0.65598 63.5859,1.35156 -0.365,7.56798 -0.6979,15.13654 -1.1425,22.66992 -27.9735,0.62154 -55.9516,0.9959 -83.9278,1.4668 -2.5293,-5.4233 -5.4251,-10.74947 -6.9199,-16.58008 0.028,-1.41445 0.7126,-2.72302 1.1752,-4.03677 0.7476,-1.7681 1.7364,-3.4179 2.6451,-5.10385 8.1947,0.0775 16.3893,0.15495 24.584,0.23242 z m -1094.71485,1.07422 c 7.80829,2.86794 15.52403,6.09512 23.53693,8.39734 6.67913,1.8797 13.69739,3.24524 20.64483,2.24251 6.5067,-0.83548 12.488,-3.87004 17.85504,-7.51572 1.45122,-0.96668 2.88071,-1.96516 4.31672,-2.95421 15.19922,0 30.39844,0 45.59765,0 5.37375,4.42798 10.77149,9.05711 17.27008,11.76077 5.96659,2.54393 12.66951,3.20665 19.05075,2.15183 3.94402,-0.6655 7.58398,-2.51117 10.77925,-4.86939 2.75939,-1.98391 5.22599,-4.37958 8.14016,-6.14087 1.45769,-0.35919 2.73463,-1.3166 3.39453,-2.67773 0.44191,-0.28115 1.17799,-0.12132 1.73472,-0.20253 1.95054,-0.0596 3.90221,0.009 5.85317,-0.0182 0.6917,18.99283 1.29624,37.9632 1.83203,56.96093 -29.37888,-0.20574 -58.75457,-0.70641 -88.12784,-1.30164 -10.89336,-0.21198 -21.78681,-0.41939 -32.68075,-0.59875 -0.0591,-6.72338 -0.4643,-13.44641 -1.36951,-20.11101 -0.17417,-1.47278 -0.34826,-2.94557 -0.52307,-4.41828 -29.92487,-0.32215 -59.85206,-0.47294 -89.77443,-0.9957 -5.38451,-0.096 -10.83336,-0.22925 -16.17088,-0.40079 -0.79352,-8.82536 -1.31465,-17.67392 -1.75734,-26.52308 0.12624,-0.46395 -0.4307,-1.56826 0.34264,-1.43819 16.64922,-0.58808 33.37791,-0.90207 50.05532,-1.34732 z m 263.20703,0.23633 c 2.94405,0.0984 5.74148,0.29421 8.68759,0.55011 1.118,0.0939 2.23445,0.20458 3.35148,0.30926 0,19.33529 0,38.67058 0,58.00586 -27.41617,-0.44904 -54.83042,-1.0108 -82.24219,-1.67578 -0.46029,-6.1581 -0.64759,-12.4912 -0.84198,-18.72498 -0.3682,-12.50618 -0.56629,-25.01653 -0.83771,-37.52502 3.20117,0.005 6.40235,0.0104 9.60352,0.0156 4.04094,4.6492 8.09282,9.40849 13.21329,12.91849 4.88906,3.46973 10.54182,5.6654 16.27717,7.29088 2.03767,0.62947 4.07549,1.25847 6.11305,1.88828 4.9147,-2.87183 10.06491,-5.53519 14.13609,-9.59507 3.54816,-3.3889 6.3111,-7.56324 8.13228,-12.11383 0.26155,-0.43344 0.32557,-1.13672 0.76288,-1.36532 1.21481,-0.0297 2.42977,-0.0127 3.64453,0.0215 z m 31.53125,1.35156 c 3.0918,0.20052 6.1836,0.40104 9.27539,0.60156 5.45654,5.22642 10.58769,10.86155 16.72393,15.31819 3.04373,2.18341 6.87675,3.76461 10.67266,3.03963 2.66388,-0.67445 5.08818,-2.05135 7.48427,-3.35977 4.51587,-2.51846 8.93254,-5.73463 11.46352,-10.35977 0.63305,-1.14658 1.12757,-2.37489 1.40172,-3.65781 4.1543,0 8.30859,0 12.46289,0 1.02093,18.98318 1.56243,37.97681 2.14258,56.96875 -26.04063,-0.21921 -52.0834,-0.3562 -78.11914,-0.94141 0,-19.34374 0,-38.6875 0,-58.03124 2.16406,0.14062 4.32812,0.28124 6.49218,0.42187 z m 90.54102,1.58203 c 3.5625,0 7.125,0 10.6875,0 4.41727,4.09314 8.71225,8.62535 14.37893,10.97883 5.86314,2.47617 12.35263,2.48583 18.60894,2.51264 4.6209,-0.0569 9.37907,0.0618 13.80622,-1.4617 3.22779,-1.18513 5.78144,-3.68857 7.608,-6.54375 0.54168,-0.79448 1.05456,-1.60764 1.57252,-2.41766 4.4349,-0.0176 8.86979,-0.0352 13.30469,-0.0527 0,10.93294 0,21.86588 0,32.79882 -19.00288,0.65996 -38.03097,1.26985 -57.06797,1.18555 -3.64401,0 -7.28802,0 -10.93203,0 0,7 0,14 0,21 -5.96875,0 -11.9375,0 -17.90625,0 -0.65577,-19.33561 -1.35609,-38.66978 -2.15625,-58 2.69856,0 5.39713,0 8.0957,0 z m 131.16602,3.52539 c 40.26623,0.50535 80.53157,1.07837 120.79687,1.65235 -0.0282,8.24851 -0.49355,16.46886 -0.89742,24.73565 -0.0661,1.28798 -0.13219,2.57597 -0.19828,3.86395 -52.63377,0.79323 -105.26755,1.58645 -157.90039,2.43946 0,-11.05404 0,-22.10807 0,-33.16211 12.73307,0.1569 25.46614,0.3138 38.19922,0.4707 z m 439.00783,3.13477 c 4.4023,0.16992 8.8047,0.33984 13.207,0.50976 7.3803,3.99919 14.7599,7.99965 22.1406,11.99805 12.6589,-0.45318 25.3177,-0.90624 37.9766,-1.35937 2.8166,2.33193 5.5582,4.75154 8.2812,7.1914 -36.7402,0 -73.4804,0 -110.2207,0 5.4629,-6.27018 10.9258,-12.54036 16.3887,-18.81055 4.0755,0.15691 8.1511,0.31381 12.2266,0.47071 z m -47.752,20.60937 c -5.4429,6.21656 -10.8817,12.43674 -16.3457,18.63477 0.5324,-8.93377 1.1257,-17.8649 1.875,-26.7832 8.0492,-3.2954 16.1174,-6.40635 24.28,-9.42823 2.5942,-0.94898 5.1958,-1.88714 7.8567,-2.63427 -5.8886,6.73697 -11.7773,13.47395 -17.666,20.21093 z m 242.2324,5.73047 c 2.448,0 4.8959,0 7.3438,0 -0.8574,21.55047 -1.6114,43.10486 -2.3359,64.66016 48.9037,0.51483 97.8089,0.91758 146.7109,1.58594 -2.6646,35.89575 -5.6598,71.76599 -8.4436,107.65258 -0.07,0.65541 0.5468,1.15714 0.8255,1.72208 1.0122,1.59493 3.0642,1.77031 4.7706,1.94127 11.1143,0.63666 22.2539,0.38482 33.3807,0.43407 -0.15,2.7045 -0.4569,5.39702 -0.7754,8.08593 -11.7111,-0.19554 -23.4236,-0.40055 -35.1366,-0.2551 -54.194,0.35007 -108.3735,1.754 -162.5626,2.46331 -2.233,0.0161 -4.4662,0.0265 -6.6992,0.005 0.7391,-6.02824 1.62,-12.02241 2.3027,-18.07422 3.4701,-29.17993 5.9126,-58.47273 7.975,-87.78284 1.4191,-20.35799 2.5157,-40.73574 3.5553,-61.11584 0.3818,-7.08925 0.7907,-14.24848 1.3037,-21.32202 2.595,0 5.1901,0 7.7851,0 z m -21.8281,0.26367 c 0.9065,-0.26993 0.8144,0.42047 0.7344,1.09916 -0.6355,16.17286 -1.5683,32.34239 -2.4535,48.48564 -1.0876,18.99221 -2.1523,38.01845 -3.801,56.94702 -1.7812,20.83118 -3.8389,41.63228 -6.1247,62.41514 -0.7376,6.35702 -1.4144,12.71422 -2.3806,19.06476 0.1279,0.88079 -0.5894,0.75497 -1.2269,0.72416 -15.6606,-0.0386 -31.4501,0.13949 -47.0289,-0.27299 -1.1393,-0.0443 -2.2526,-0.0706 -3.3203,-0.13086 3.0269,-42.61519 6.2255,-85.21857 9.1801,-127.83861 1.1497,-18.2086 2.286,-36.40108 3.7141,-54.58375 0.1446,-1.64295 0.2645,-3.28897 0.4554,-4.92724 17.4167,-0.35797 34.8314,-0.84882 52.2519,-0.98243 z m -68.9922,54.73633 c -5.289,0 -10.5781,0 -15.8672,0 0,-16.66667 0,-33.33333 0,-50 6.4076,-6.5e-4 12.8152,-0.001 19.2227,-0.002 -1.1185,16.66732 -2.237,33.33463 -3.3555,50.00195 z m -114.7871,-50 c 7.6107,0 15.2214,0 22.8321,0 -0.3794,10.40014 -1.0474,20.77122 -1.6519,31.17398 -0.3851,6.29119 -0.7765,12.53595 -1.2583,18.80063 -14.6714,0.68179 -29.3999,0.83445 -44.1176,1.18589 -0.9132,0.0194 -1.8265,0.0388 -2.7398,0.0582 1.516,-16.96158 2.0965,-33.98901 3.6253,-50.93476 0.083,-0.59946 1.1296,-0.13995 1.627,-0.28399 7.2278,0 14.4555,0 21.6832,0 z m 60.9278,0 c 8.3307,0 16.6614,0 24.9921,0 0,16.66667 0,33.33333 0,50 -17.6191,0 -35.2382,0 -52.8574,0 1.0552,-16.52775 1.9074,-33.06671 2.7305,-49.60742 8.3141,-0.46002 16.742,-0.34307 25.1348,-0.39258 z m -1129.95707,0.7461 c 46.86638,0.40918 93.73378,0.71826 140.59891,1.25815 9.89377,0.12835 19.78786,0.25278 29.68038,0.45669 1.17586,13.302 1.89445,26.61717 2.8276,39.9455 0.4591,6.85312 0.91954,13.70657 1.50053,20.55059 -32.77768,-0.32613 -65.55102,-0.97184 -98.32546,-1.52001 -26.1194,-0.45506 -52.23877,-0.91192 -78.35813,-1.36866 0.58285,-19.77119 1.15162,-39.56146 2.07617,-59.32226 z m 896.57027,18.02734 c -0.5657,14.74219 -1.1315,29.48437 -1.6972,44.22656 -4.9759,0 -9.9518,0 -14.9278,0 -0.05,-13.14386 0.1991,-26.29896 -0.4338,-39.43211 -0.09,-1.66034 -0.5491,-3.45203 -1.9646,-4.47805 -2.1301,-1.61269 -4.94834,-1.50353 -7.48205,-1.7237 -6.75705,-0.35627 -13.52828,-0.27646 -20.29252,-0.32546 -17.14934,-0.0502 -34.30398,-0.0801 -51.44679,0.44672 -2.16049,0.10193 -4.36913,0.0707 -6.47555,0.58749 -2.23208,0.75396 -3.26015,3.1965 -3.43981,5.3841 -0.50774,5.93132 -0.15713,11.8902 -0.0553,17.8313 0.29508,11.12102 0.65565,22.24018 0.98887,33.3601 35.06856,0.50821 70.13879,0.91426 105.20512,1.56836 -0.9317,34.18487 -2.1312,68.35173 -3.2164,102.53464 -0.083,2.55356 -0.1657,5.10712 -0.2485,7.66067 -2.9834,0.21382 -6.1899,0.25867 -9.2729,0.32779 -21.71522,0.33988 -43.43393,0.22568 -65.15092,0.25815 -14.52343,0 -29.04687,0 -43.57031,0 -0.45966,-20.82699 -1.06383,-41.6544 -0.98047,-62.48867 0.026,-38.49179 1.03511,-76.97316 1.97657,-115.45078 10.76428,-0.40628 21.49148,-0.73559 32.27391,-0.90408 30.21998,-0.58358 60.44451,-0.8735 90.66752,-1.25217 -0.1524,3.95638 -0.3047,7.91276 -0.4571,11.86914 z m -135.63277,0.45312 c -0.0475,5.61378 -0.0757,11.23775 -0.52735,16.83594 -0.0757,0.51938 0.0402,1.29961 -0.73023,1.00393 -7.77143,-0.31805 -15.53924,-0.8655 -23.31963,-0.85645 -2.39032,0.0352 -5.04707,0.12161 -6.98334,1.70994 -1.88993,1.70201 -1.95005,4.4159 -2.20898,6.76172 -0.22455,2.75528 -0.20452,5.52108 -0.21094,8.2832 -36.99733,-0.29523 -73.99037,-0.95852 -110.98381,-1.54969 -26.60519,-0.44801 -53.21073,-0.89209 -79.81307,-1.48741 -0.62547,-12.65145 -0.93513,-25.31553 -1.36132,-37.97461 69.91844,-0.9834 139.83554,-2.07313 209.75624,-2.88736 5.46332,-0.0412 10.92678,-0.058 16.39024,-0.0599 -0.003,3.4069 -0.005,6.8138 -0.008,10.2207 z m 269.74607,10.51954 c -0.4573,7.04321 -0.9222,14.0859 -1.4121,21.12695 -10.4032,0.13352 -20.8102,0.2066 -31.2127,-0.0165 -0.6595,-0.0192 -1.3191,-0.0385 -1.9787,-0.0577 11.8593,-13.87719 23.8429,-27.60437 35.8887,-41.32813 -0.4284,6.75847 -0.8568,13.51693 -1.2852,20.2754 z M 465.35352,361.2207 c 20.15437,0.36513 40.32287,0.84093 60.45703,1.49024 0,26.62109 0,53.24219 0,79.86328 -26.63155,-0.25372 -53.26259,-0.56265 -79.89258,-0.94727 -1.09615,-25.30893 -1.60053,-50.62986 -2.17058,-75.97442 -0.0356,-1.59967 -0.0712,-3.19934 -0.10677,-4.79901 7.23764,0.12239 14.47527,0.24479 21.7129,0.36718 z m 467.95703,0.39258 c 2.16666,0 4.33333,0 6.5,0 0,10.66667 0,21.33333 0,32 -3.95899,0 -7.91797,0 -11.87696,0 -0.44306,-9.36231 -0.9269,-18.72534 -1.10442,-28.0617 -0.0171,-1.31271 -0.0192,-2.6255 -0.0186,-3.9383 2.16666,0 4.33333,0 6.5,0 z m 25,0 c 1.83333,0 3.66666,0 5.5,0 0,10.66667 0,21.33333 0,32 -3.66667,0 -7.33334,0 -11,0 0,-10.66667 0,-21.33333 0,-32 1.83333,0 3.66666,0 5.5,0 z m 26.5,0 c 2.66666,0 5.33333,0 8,0 0,11 0,22 0,33 -5.33334,0 -10.66667,0 -16,0 0,-11 0,-22 0,-33 2.66666,0 5.33333,0 8,0 z m -407.32032,1.57813 c 13.14736,0.23522 26.29551,0.4518 39.43946,0.83984 0.96852,21.02607 1.66785,42.06349 2.37695,63.09961 0.1496,5.13649 0.32057,10.32463 0.42774,15.48242 -4.97657,0 -9.95313,0 -14.92969,0 -0.0438,-9.63192 0.1966,-19.27997 -0.46138,-28.89613 -0.11041,-1.96883 -1.14563,-3.96777 -3.02186,-4.77103 -2.3868,-1.15429 -5.11923,-1.04462 -7.7038,-1.1897 -7.43805,-0.21924 -14.88152,-0.13406 -22.32185,-0.12875 -3.26484,0.0509 -6.63035,-0.0116 -9.75544,1.06252 -2.49419,0.93707 -4.35419,3.32893 -4.56326,5.99825 -0.39281,2.9689 -0.0277,5.97014 -0.22651,8.95164 -0.18136,6.61587 -0.59711,13.32125 -1.0045,19.96539 -5.50149,-0.0139 -11.00863,0.10773 -16.5039,-0.21875 -0.28281,-8.21352 -0.3126,-16.56013 -0.37906,-24.8289 -0.0888,-18.66368 -0.0409,-37.3276 -0.0526,-55.99141 12.89323,0.20833 25.78646,0.41666 38.67968,0.625 z m 54.88086,1.14257 c 5.48185,0.004 10.96144,0.17765 16.44141,0.30079 0.0423,7.12712 -0.13813,14.26168 0.21065,21.38279 0.12138,2.44258 0.48861,5.22426 2.48523,6.88789 1.921,1.52164 4.5208,1.30809 6.82388,1.49702 7.21367,0.33958 14.43931,0.15678 21.65635,0.3919 11.2928,0.22981 22.53298,0.62624 33.82194,1.00251 0,15.93098 0,31.86197 0,47.79296 -22.91904,-0.14922 -45.8399,-0.15545 -68.75682,-0.52696 -4.18356,-0.0841 -8.24878,-0.16191 -12.41506,-0.46522 -0.84116,-23.17107 -1.47209,-46.33145 -2.09003,-69.51396 -0.0573,-2.90252 -0.1717,-5.86802 -0.17364,-8.73214 0.66536,-0.006 1.33073,-0.012 1.99609,-0.0176 z m 235.28907,16.39258 c 2.38042,0.0763 4.94319,0.1832 7.3932,0.30922 3.55531,0.17733 7.17196,0.39029 10.75719,0.57555 0,7.63802 0,15.27604 0,22.91406 -7.05338,-0.14604 -14.02426,-0.3254 -21.06641,-0.76758 0.39035,-7.71053 0.66994,-15.38849 1.23633,-23.07226 0.55989,0.0137 1.11979,0.0273 1.67969,0.041 z m 410.35744,13.92383 c 8.7944,0.0299 17.5906,-0.0337 26.3828,0.20703 1.3152,0.0489 2.7977,0.0779 4.1777,0.15039 -2.7542,40.29533 -5.6956,80.58024 -8.5117,120.87696 -27.2664,0.70554 -54.6942,1.02814 -82.0254,1.41077 -39.488,0.52055 -78.9784,0.96628 -118.4609,1.80993 -4.5848,0.14745 -9.1676,0.34501 -13.75,0.55078 0.092,-11.04546 0.5366,-22.09232 0.8445,-33.1209 0.947,-29.98453 1.9146,-59.96901 3.1097,-89.94476 -0.2532,-0.89595 0.6715,-0.57636 1.2281,-0.63669 26.4326,-0.36286 52.8676,-0.51779 79.3018,-0.72324 35.9008,-0.24667 71.8017,-0.50379 107.7034,-0.58027 z m -517.52541,1.35156 c 30.60736,0.51309 61.21355,1.09447 91.81836,1.74219 0,6.05729 0,12.11458 0,18.17188 11.1142,0.58932 22.23045,1.05592 33.30664,1.79101 -0.18188,9.26515 -0.61267,18.57682 -0.95899,27.875 -47.86971,-0.35437 -95.73731,-0.94597 -143.60416,-1.56865 -4.74811,-0.065 -9.49596,-0.14517 -14.24349,-0.24385 0,-16.10807 0,-32.21614 0,-48.32422 11.22721,0.18555 22.45442,0.3711 33.68164,0.55664 z m 312.37691,-0.38867 c 1.2801,0.0164 2.5617,0.01 3.8399,0.0879 -1.2725,40.76596 -2.7049,81.52646 -3.8564,122.29522 -0.086,0.49392 0.1252,1.29531 -0.1264,1.61689 -2.9804,0 -5.9607,0 -8.941,0 0.9625,-18.29496 1.5307,-36.60764 2.1949,-54.91512 0.7535,-21.26364 1.4008,-42.53264 2.4365,-63.78487 0.1046,-1.76706 0.2227,-3.5334 0.3354,-5.30001 1.3723,0 2.7447,0 4.1171,0 z m -492.10348,25 c 3.62045,0 7.24089,0 10.86133,0 0.50057,15.83988 1.16367,31.64642 1.1836,47.5 0.22565,0.85898 -0.89084,0.37583 -1.4,0.5 -7.88164,0 -15.76328,0 -23.64493,0 0.69922,-16 1.39844,-32 2.09766,-48 3.63412,0 7.26823,0 10.90234,0 z m -220.9375,31.96875 c 58.19396,1.12104 116.38911,2.19192 174.57941,3.49132 7.09592,0.17689 14.17562,0.41244 21.2702,0.63368 -0.40881,6.06829 -1.04582,12.25315 -0.5177,18.36522 0.38729,2.20924 1.07339,4.35213 1.56458,6.53908 16.36198,0 32.72396,0 49.08594,0 0,-8.66602 0,-17.33203 0,-25.99805 15.02601,0.0473 30.06045,-0.15203 45.07774,0.46397 0.72679,0.04 1.48088,0.0738 2.18788,0.16689 -2.44794,1.91534 -5.13626,3.54539 -7.2897,5.81584 -3.47193,3.44549 -5.77543,8.08289 -6.18516,12.97702 -0.62389,5.70458 0.22274,11.83778 3.62549,16.59637 2.03089,2.80546 4.75329,5.24 8.0232,6.47405 3.48095,1.19774 7.23128,1.0387 10.8535,0.86893 5.26467,-0.39473 10.57286,-2.38798 14.22216,-6.31249 3.30868,-3.4749 5.57396,-7.9 6.68801,-12.55253 0.93084,-4.37782 0.0816,-9.09749 -2.38875,-12.83884 -2.69511,-4.36951 -6.80172,-7.5771 -10.81828,-10.65921 9.33529,0 18.67057,0 28.00586,0 -0.0474,0.85508 0.16226,1.86245 -0.3418,2.5957 -1.53311,1.42986 -3.41788,2.42967 -4.94797,3.87163 -3.70975,3.23614 -6.41725,7.86209 -6.55104,12.86628 -0.17575,4.96062 1.67328,9.86642 4.62075,13.80631 2.7489,3.50286 7.12816,5.57719 11.56663,5.63734 5.56057,0.26435 11.4405,-1.46255 15.33507,-5.58976 3.95447,-4.05182 5.68654,-10.00373 4.83525,-15.56774 -0.83781,-5.91437 -4.37511,-11.30377 -9.2995,-14.63941 -0.71292,-0.60721 -1.66047,-1.0737 -2.10606,-1.91785 -0.10348,-0.51735 -0.30241,-1.3223 0.50815,-1.04104 10.92892,0.14194 21.85785,0.28387 32.78677,0.42581 -0.23188,10.18424 -0.46284,20.3685 -0.69531,30.55273 29.83073,0 59.66146,0 89.49218,0 0.72748,-3.37321 1.5278,-6.75243 1.6506,-10.21591 0.51918,-6.60913 0.8083,-13.23254 1.15409,-19.85245 9.0522,0.57858 18.11883,0.89951 27.18905,0.99831 7.2231,0.0872 14.44687,0.061 21.67033,0.07 0.37347,16.17979 0.90069,32.35693 1.05469,48.54102 -5.08266,-4.1226 -9.97952,-8.46508 -14.95118,-12.71875 -11.87764,0.47439 -23.75516,0.95176 -35.63281,1.42578 -7.18522,4.31533 -14.86039,8.10261 -20.85597,14.09004 -5.55044,5.52325 -8.92847,12.75472 -11.68084,19.97858 -1.7012,4.3954 -3.28386,8.83579 -4.9417,13.24778 1.56718,7.10978 3.30452,14.18388 4.66406,21.33789 -3.74452,0.16232 -7.4953,0.074 -11.24219,0.0566 1.23778,-4.0927 1.69238,-8.37955 1.623,-12.64493 -0.0909,-8.06982 -1.95768,-15.96821 -3.88029,-23.762 -0.50621,-2.11627 -1.01077,-4.23293 -1.5181,-6.34893 -7.85927,-6.54082 -15.5938,-13.23355 -23.57422,-19.62696 -3.13201,-2.45955 -6.60184,-4.6601 -10.54612,-5.50616 -8.89741,-2.31082 -18.19854,-1.92114 -27.28067,-1.24594 -2.28089,0.2049 -4.57846,0.37503 -6.83532,0.74038 -2.96016,0.9718 -5.54216,2.78 -8.1937,4.36757 -5.96353,3.76852 -11.8353,7.72148 -17.26795,12.23062 -3.9942,3.49187 -6.86325,8.15944 -8.44114,13.2076 -2.35479,7.15693 -3.01552,14.72054 -3.5945,22.19015 -0.35988,5.14209 -0.5701,10.29247 -0.84451,15.43961 -1.77148,0 -3.54296,0 -5.31445,0 0.27845,-9.55856 0.99896,-19.51415 -1.87907,-28.83882 -1.95152,-6.29293 -5.28529,-12.1179 -9.43733,-17.21391 -6.5573,-7.81421 -15.39924,-13.3292 -24.58359,-17.55416 -6.12131,-2.80703 -12.4822,-5.04552 -18.83438,-7.2603 -0.64809,-0.28444 -1.30351,-0.21884 -1.96296,-0.008 -9.80525,2.18696 -19.87544,3.96003 -28.9337,8.50925 -7.87949,3.90892 -14.44879,10.05379 -19.86399,16.90956 -4.87851,6.29993 -8.13233,13.87187 -9.13904,21.78906 -1.07912,7.87175 -0.20859,15.83818 0.97781,23.64375 -1.16828,0.0369 -2.33723,0.0217 -3.50586,0.0195 -0.049,-6.7517 -0.12971,-13.574 -1.70392,-20.17766 -1.81261,-7.92608 -5.22731,-15.42661 -9.50773,-22.31402 -4.52047,-7.07323 -10.75523,-12.89186 -17.57826,-17.71201 -3.8292,-2.72607 -7.74587,-5.34662 -11.82721,-7.68086 -3.00963,-1.62545 -6.38323,-2.42763 -9.76845,-2.75261 -9.30107,-1.12626 -18.90025,-1.05982 -27.96362,1.52992 -8.08921,2.42557 -15.20133,7.39101 -21.18792,13.25177 -4.79712,4.74827 -8.81552,10.41017 -10.99756,16.83987 -1.78862,4.89419 -3.29517,9.94265 -3.86767,15.13669 -0.15411,0.24546 -1.13326,-0.0117 -1.30241,-0.41467 -0.99442,-2.29592 -1.66222,-4.72623 -2.65267,-7.02869 -3.54097,-8.69619 -8.70899,-16.73024 -15.23516,-23.48735 -4.47617,-4.65229 -9.39084,-8.98063 -15.03153,-12.17105 -5.7744,-3.26631 -12.21964,-5.18631 -18.7567,-6.17838 -10.12071,-1.60709 -20.39647,-1.52602 -30.60595,-2.02821 -0.87095,-0.0339 -1.7419,-0.0679 -2.61285,-0.10181 -5.07521,5.39755 -10.35672,10.60621 -15.22851,16.19141 -4.01168,4.66135 -7.93092,9.46659 -10.89888,14.87783 -0.40058,0.69205 -0.80441,1.38496 -1.20659,2.07725 -4.45587,-0.46722 -8.92616,-0.94944 -13.33594,-1.48828 -0.48187,-13.83152 -1.0678,-27.62557 -1.17943,-41.46445 -0.0124,-3.96301 -0.001,-7.92605 -0.004,-11.88907 -5.28166,0.033 -10.56196,-0.0785 -15.83802,-0.32044 -12.31855,-0.47154 -24.63275,-1.28772 -36.96506,-1.21541 -1.75779,0.12977 -3.64666,-0.0539 -5.26323,0.76733 -1.39152,0.66 -2.112,2.17146 -2.18197,3.65744 -0.23422,2.60177 -0.0685,5.22266 -0.0602,7.83169 0.3024,14.82261 1.04624,29.63344 1.81855,44.4377 0.42285,7.61197 0.88437,15.22176 1.40004,22.82802 -6.90234,0 -13.80468,0 -20.70703,0 -2.79877,-4.1882 -5.83647,-8.2876 -9.71584,-11.54611 -6.21507,-5.39546 -14.12917,-8.62133 -22.25046,-9.69786 -5.74721,-0.80198 -11.63133,-0.90782 -17.36751,0.0368 -5.86931,1.02828 -11.52921,3.70701 -15.66533,8.05497 -5.3223,5.49108 -8.3384,12.7124 -10.62682,19.89476 -0.56573,1.72571 -1.1026,3.46276 -1.64748,5.17153 -18.74358,-1.00875 -37.50346,-1.68244 -56.24804,-2.66992 -0.79368,-0.0469 -1.70341,-0.098 -2.54297,-0.1543 -0.55886,-8.80078 -0.8541,-17.63759 -1.23633,-26.47656 8.43124,0.77615 16.90691,0.84179 25.35742,1.31055 6.15819,0.32753 12.43652,0.75644 18.59922,1.2958 3.54553,0.28278 7.0913,0.626 10.6332,0.90342 1.39189,-0.007 2.30601,-1.17887 3.38752,-1.88371 5.31712,-4.05333 10.62158,-8.1613 16.40961,-11.53478 2.91134,-1.74397 5.90983,-3.35838 9.05248,-4.64792 0.68158,-0.27134 1.63301,-0.67585 2.45897,-0.88712 3.56808,-0.91496 7.28664,-0.57939 10.93084,-0.66002 3.93649,0.0284 8.07512,-0.0432 11.67432,1.79987 4.73544,2.08195 9.13384,4.84126 13.33473,7.84175 1.84125,1.2698 4.32161,2.12457 6.46423,1.09135 1.69297,-0.7913 2.98419,-2.25138 4.04316,-3.75224 1.25538,-2.09947 0.60329,-5.00897 -1.35337,-6.44914 -2.48587,-2.13397 -5.23281,-3.94496 -7.98613,-5.71194 -6.65439,-4.12702 -14.15491,-6.98965 -21.96607,-7.83003 -7.92345,-0.95725 -16.05314,0.19194 -23.45548,3.15097 -8.10881,3.12243 -15.362,8.04406 -22.21898,13.30675 -1.45065,1.01726 -2.82387,2.31745 -4.58013,2.75673 -1.92649,0.15038 -3.83468,-0.32034 -5.75846,-0.38181 -7.87757,-0.69622 -15.79132,-0.94953 -23.65403,-1.822 0.45859,-6.86115 0.96125,-13.73895 1.5664,-20.60937 11.70302,0.58016 23.37513,1.05032 35.0518,2.18564 2.04586,0.18512 4.09169,0.37061 6.13766,0.55459 -0.12568,-2.80682 0.10935,-5.62237 -0.13266,-8.4233 -0.0556,-0.84789 -0.32552,-1.67467 -0.73062,-2.41849 4.69191,-5.02332 9.71692,-9.72094 14.65363,-14.49999 7.77958,-7.47023 15.60347,-14.85952 23.4284,-22.28517 52.58919,0.98568 105.17838,1.97135 157.76757,2.95703 z m 430.63086,5.03125 c 10.77995,0 21.5599,0 32.33985,0 -0.0776,5.70179 -0.5538,11.33509 -0.98633,17 -21.66341,0 -43.32682,0 -64.99023,0 0.0188,-1.50877 0.0768,-3.17415 0.13671,-4.58398 0.19617,-4.14421 0.53141,-8.27986 0.84961,-12.41602 10.88347,0 21.76693,0 32.65039,0 z m -128.87109,8.74805 c 3.49434,2.83776 7.19148,5.79918 9.08594,10.0039 0.38956,1.4358 -0.49792,2.829 -1.14649,4.05079 -1.4519,2.43297 -3.65422,4.53213 -6.43506,5.30669 -2.51439,0.8803 -5.56611,1.39566 -7.92626,-0.16412 -2.25786,-1.70859 -2.76912,-4.76281 -2.7754,-7.42578 -0.0494,-2.39261 0.25707,-5.08343 2.15747,-6.76873 2.0333,-2.06066 4.60329,-3.45249 7.00269,-5.02814 z m 43.86914,3.56055 c 2.36461,1.3639 3.86158,3.97416 4.00515,6.68217 0.0524,1.55714 -0.13771,3.31341 -1.21218,4.5229 -1.0291,0.953 -2.51636,1.05922 -3.82617,1.34571 -1.54669,0.25283 -3.48888,0.0584 -4.33203,-1.46094 -0.91393,-1.5581 -1.12536,-3.43767 -1.10547,-5.21094 0.336,-1.96396 2.22534,-3.02219 3.64033,-4.18135 0.86957,-0.64355 1.7772,-1.23933 2.73467,-1.74443 l 0.0898,0.044 z m -427.65234,8.20507 c 8.33659,0.35728 16.59123,0.70184 24.90625,1.35157 0.89977,28.00078 1.56139,56.03571 2.18945,84.05664 -11.15293,-0.19668 -22.29585,-0.44355 -33.42383,-0.8711 -0.31458,-2.16174 -0.76616,-4.36903 -0.55273,-6.54883 1.34051,-1.33447 1.61907,-3.38423 1.56476,-5.20108 -0.17624,-3.97248 -0.85198,-7.87014 -1.12031,-11.84049 -0.078,-1.22768 -0.19184,-2.70102 -0.28469,-4.02451 -1.29051,-18.32766 -1.65507,-36.83604 -2.93785,-55.22881 -0.0527,-0.69083 -0.10235,-1.38182 -0.15941,-2.07229 3.27278,0.1263 6.54557,0.2526 9.81836,0.3789 z M 89.611328,492.22656 c 6.995832,0.67836 14.020262,0.98441 21.035152,1.39844 -0.2803,5.16541 -0.53627,10.4498 -0.91992,15.54688 -0.16397,2.0117 -0.31714,4.02552 -0.54101,6.03124 -6.99174,-0.76305 -13.985074,-1.53274 -20.941409,-2.57812 -0.132813,-6.86198 -0.265625,-13.72396 -0.398438,-20.58594 0.588542,0.0625 1.177083,0.125 1.765625,0.1875 z m 951.978472,4.38672 c 3.4545,0 6.9089,0 10.3633,0 -0.813,20.65321 -1.5722,41.30849 -2.3008,61.96484 -6.1379,-0.0745 -12.2828,-0.0533 -18.37,-0.3245 -0.7843,-0.0393 -1.5694,-0.0609 -2.3526,-0.11885 -0.2068,-3.97932 0.014,-7.96729 0.082,-11.94848 0.3392,-13.55572 0.7915,-27.05793 1.3946,-40.61184 0.1505,-2.98721 0.303,-5.97431 0.4604,-8.96117 3.5742,0 7.1484,0 10.7226,0 z m -670.45113,5.03516 c 3.19761,0.0211 6.39487,0.14456 9.58008,0.43359 1.13819,0.10205 2.52318,0.24408 3.75145,0.40804 1.40965,0.17456 3.03729,0.44618 4.28957,0.67009 6.56959,1.257 13.15049,3.32942 18.59611,7.33165 5.8844,4.25392 10.78148,9.77306 14.79475,15.79788 2.13357,3.21874 3.97682,6.63475 5.44312,10.20836 -20.06807,-4.00377 -40.03001,-8.56567 -60.22059,-11.92291 -4.46703,-0.59528 -8.97757,-0.75628 -13.46503,-1.14327 -2.54608,-0.18664 -5.10897,-0.33526 -7.57711,-0.58827 -0.55907,-0.063 -1.19645,-0.10994 -1.70407,-0.21079 1.14046,-1.6963 2.57619,-3.61281 3.80274,-5.16992 4.42078,-5.59807 9.42289,-10.71559 14.36133,-15.83594 2.78054,-0.001 5.5655,0.0135 8.34765,0.0215 z m 126.09571,3.33594 c 1.25878,5e-5 2.50827,0.0269 3.67187,0.0999 4.42299,0.22929 8.86443,1.20938 12.74803,3.40073 4.77813,2.54263 9.09684,5.84431 13.3633,9.14976 5.92299,4.88024 10.43647,11.3261 13.5039,18.33007 0.30003,0.70735 0.71853,1.68251 1.02706,2.51257 2.40734,6.34794 3.75437,13.09139 4.06669,19.87025 0.019,0.50417 0.0476,1.36576 0.0478,2.00698 0.006,1.07977 0.004,2.16158 -0.0693,3.23911 -15.96094,-0.11179 -31.92213,-0.19453 -47.88281,-0.33984 1.91854,-0.80907 2.9082,-2.90721 3.01605,-4.89772 0.1866,-1.94944 0.12068,-4.06296 -0.8434,-5.81151 -0.70753,-1.24194 -2.09111,-1.88141 -3.46985,-2.00873 -13.33035,-2.65412 -26.6236,-5.49218 -39.94499,-8.18634 0.73527,-4.44802 1.73512,-8.88063 3.34065,-13.1013 0.82544,-2.09018 1.83624,-4.10711 3.01287,-6.02175 0.32996,-0.53771 0.84991,-1.34221 1.28711,-1.96094 3.28038,-4.69618 7.6767,-8.5967 12.72851,-11.29687 0.58782,-0.32043 1.46551,-0.7614 2.18502,-1.09164 5.69112,-2.60988 11.96476,-3.84506 18.21147,-3.89273 z m 131.26757,4.49218 c 8.11118,3.30002 16.28005,7.06289 22.73243,13.125 4.71808,4.46248 8.18069,10.19409 10.19489,16.35055 1.08589,4.16592 0.98916,8.51097 1.22274,12.77901 0.1375,3.87447 0.16197,7.93517 -0.0758,11.88216 -26.20297,-0.0434 -52.40791,0.13872 -78.60906,-0.24838 -3.06612,-0.0548 -6.15189,-0.13448 -9.17219,-0.25552 -0.41336,-2.51985 -0.77275,-5.01791 -1.06836,-7.49415 -0.77998,-6.50941 -1.01724,-13.27712 1.05124,-19.58661 2.2199,-6.69435 6.87756,-12.25046 11.94734,-17.01333 5.21528,-4.89717 11.83403,-8.0446 18.67377,-9.95786 4.58517,-1.34945 9.28672,-2.23703 13.95656,-3.23321 3.04883,1.21745 6.09766,2.43489 9.14648,3.65234 z m 245.79493,4.95313 c 2.81704,2.38059 5.66366,4.82839 8.25784,7.34139 3.29907,3.26266 6.51297,6.72318 8.76411,10.81155 1.82237,3.38476 2.55354,7.20908 3.32049,10.93815 0.89586,4.93327 1.35793,9.97466 1.0638,14.98703 -0.0977,1.7891 -0.78501,3.46376 -1.69154,4.98762 -2.53915,4.53428 -5.33394,8.92637 -8.2924,13.198 -3.22433,4.58488 -6.86985,8.97018 -11.4184,12.30071 -0.424,0.30315 -1.12162,0.79311 -1.67478,1.1417 -3.98527,2.60902 -8.49662,4.22357 -12.95412,5.81924 -0.51191,0.12318 -1.24254,0.62396 -1.87064,0.31217 -5.80604,-1.27734 -11.72003,-2.3765 -17.23108,-4.72717 -1.28157,-0.53935 -2.53909,-1.13453 -3.76743,-1.78617 -0.24293,-0.13789 -0.97642,-0.52774 -1.40302,-0.79224 -4.55509,-2.63819 -8.34255,-6.44398 -11.31273,-10.76386 -0.69462,-0.65582 0.61515,-0.31769 1.02435,-0.42437 13.46695,-0.28022 26.93756,-0.10955 40.40625,-0.16016 1.43099,0 2.86198,0 4.29297,0 0,-4.30989 0,-8.61979 0,-12.92969 -18.07488,-0.17936 -36.14974,-0.35942 -54.22461,-0.53906 -1.51563,-6.75716 -3.03125,-13.51432 -4.54688,-20.27148 1.39604,-3.52799 2.69392,-7.13014 4.08793,-10.54163 1.86916,-4.68366 4.0635,-9.34276 7.48143,-13.11428 4.36482,-4.8464 10.24608,-7.87598 15.67969,-11.3293 0.73298,-0.35225 1.64262,-0.13901 2.44868,-0.2573 8.40219,-0.38206 16.80438,-0.76411 25.20657,-1.14616 2.7845,2.3151 5.56901,4.6302 8.35352,6.94531 z m -138.06641,-6.5918 c 4.51815,0.0834 9.08141,0.25062 13.50117,1.26701 1.68019,0.36486 3.05309,1.49902 4.48097,2.39747 6.25959,4.42833 12.21751,9.29495 17.79772,14.5544 2.41404,2.35109 4.36944,5.24811 5.19318,8.54736 0.8623,2.96203 1.39694,5.99751 1.90465,8.95696 1.06057,5.49219 1.53672,11.30661 -0.21944,16.71113 -0.44773,1.47335 -1.03707,2.89772 -1.62895,4.31762 -27.84788,-0.23239 -55.69599,-0.48509 -83.54102,-0.95703 0.44838,-8.26766 0.66181,-16.49773 1.6135,-24.73709 0.60562,-4.90191 1.62269,-10.0502 4.86701,-13.95061 3.29649,-4.03799 7.71342,-6.91979 11.90662,-9.931 2.92216,-1.99585 5.78216,-4.20794 9.12048,-5.46845 3.37534,-1.11953 6.96241,-1.36502 10.48743,-1.60716 1.50447,-0.0741 3.01053,-0.0982 4.51668,-0.10061 z m 801.96873,17.97656 c 0.5396,0.0485 1.4492,-0.26084 1.1469,0.60165 -0.3837,10.37103 -0.9008,20.71171 -1.5238,31.0507 -0.1314,0.46879 0.2174,1.41001 -0.5626,1.24044 -4.3524,0.35916 -8.7411,0.63513 -13.1523,0.93924 -1.5568,-4.50377 -3.5072,-8.91259 -6.2145,-12.8554 -2.2694,-3.27808 -4.8873,-6.51787 -8.5229,-8.33851 -4.7181,-2.2722 -9.6907,-4.0572 -14.8095,-5.17718 -3.9108,-0.64755 -7.7444,0.74429 -11.4561,1.78772 -7.9819,2.4301 -15.7381,6.40253 -21.3532,12.70326 -5.1125,5.66385 -8.1165,12.95425 -9.4787,20.39982 -0.1441,0.69627 -0.2884,1.39077 -0.4287,2.08772 -14.5625,0.66615 -29.0727,1.1957 -43.651,1.28621 -1.1346,0.0114 -2.2692,0.0227 -3.4037,0.0341 -0.2477,-7.42273 -2.5619,-14.67985 -6.0487,-21.19808 -2.6014,-4.81625 -6.3142,-9.17352 -11.1929,-11.78298 -3.7557,-2.09771 -7.8966,-3.3452 -11.983,-4.61855 0.099,-1.97816 0.1379,-3.96082 0.3242,-5.93359 3.1643,-0.57518 6.404,-0.35338 9.6042,-0.43344 9.18,0.008 18.3598,-0.0282 27.5391,-0.14894 39.2639,-0.39334 78.5223,-1.21202 117.7864,-1.59731 2.4602,-0.0156 4.9205,-0.0314 7.3808,-0.0469 z m -183.9804,2.9375 c 2.7188,0.0189 5.4388,-4e-4 8.1562,0.10547 0.613,-0.22048 0.6576,0.34407 0.513,0.90382 -0.083,1.44112 -0.083,2.88546 -0.079,4.3286 -5.2229,2.69848 -10.5701,5.29777 -15.1259,9.07128 -4.2854,3.43065 -7.9386,7.54945 -11.7765,11.45216 -8.582,0 -17.164,0 -25.746,0 0.7406,-8.50235 1.3225,-17.0182 1.8945,-25.5332 14.0546,-0.12213 28.109,-0.27331 42.1641,-0.32813 z m -57.1622,0.41016 c 0.6068,0 1.2136,0 1.8204,0 -0.3369,9.76703 -1.421,19.48998 -1.8529,29.25034 -0.1394,2.11979 -0.019,4.59109 1.6997,6.0934 0.6248,0.56178 1.4252,0.90379 2.245,1.05665 1.6959,1.72637 4.2955,1.68323 6.539,1.82617 7.6628,0.34211 15.3712,-0.17669 23.0098,-0.041 -0.2601,1.68852 -0.4179,3.39044 -0.586,5.08984 -14.6579,0.51919 -29.2582,1.12168 -43.9296,1.18164 -1.1667,-0.001 -2.3334,-0.003 -3.5,-0.004 -0.9435,-5.91934 -1.9195,-12.02749 -5.0352,-17.25976 -2.6336,-4.50931 -6.6803,-8.05619 -11.2299,-10.55373 -5.0582,-2.95745 -10.3099,-5.63445 -15.8281,-7.62482 -1.9731,-0.73293 -4.3363,-1.23641 -6.2439,-0.0499 -3.6218,1.84614 -7.5829,2.89091 -11.2611,4.61302 -6.8784,2.99206 -13.54,7.10423 -18.052,13.22595 -3.5693,4.80486 -5.5577,10.59537 -6.6291,16.43634 -0.1064,0.53829 -0.2574,1.26453 -0.3809,1.875 -10.3947,0.57601 -20.7416,0.99702 -31.1429,1.14963 -4.2938,0.0749 -8.5883,0.10067 -12.8825,0.14725 0.054,-3.85279 -0.1488,-7.80729 -1.6499,-11.40975 -1.603,-4.12194 -3.7504,-8.06457 -6.5206,-11.52 -4.5797,-5.51214 -10.9325,-9.07966 -17.1076,-12.50711 -2.1948,-1.11182 -4.434,-2.32339 -6.8994,-2.67295 -1.6663,-0.23925 -3.3187,0.21234 -4.845,0.84404 -0.8506,0.28749 -1.7513,0.57686 -2.5478,0.82632 -4.6779,1.4397 -9.4943,2.61703 -13.811,5.00032 -4.9731,2.64551 -9.0344,6.75596 -12.1068,11.43913 -1.5014,2.23882 -2.7842,4.6131 -4.1857,6.91406 -3.3078,-0.27182 -6.6144,-0.51539 -9.8633,-0.82422 0.082,-5.21083 0.353,-10.39938 0.5918,-15.62695 0.1573,-2.84703 0.3116,-5.87966 0.499,-8.71887 0.099,-1.51763 0.1967,-3.03537 0.3272,-4.55066 14.7296,-0.481 29.5469,-0.73207 44.3135,-1.04048 49.2456,-0.96253 98.4943,-1.77418 147.7454,-2.39998 6.4334,-0.0704 12.8668,-0.12519 19.3004,-0.16501 z m -336.91793,2.45117 c 18.89844,0 37.79688,0 56.69533,0 -0.5929,8.64217 -1.0669,17.29932 -1.0274,25.96484 -21.12601,-0.15522 -42.25144,-0.42067 -63.37263,-0.90827 -14.52986,-0.30485 -29.05891,-0.64675 -43.58827,-0.97454 -0.34136,-5.37736 -0.76115,-10.77106 -1.90829,-16.04788 -0.5599,-2.7212 -1.29967,-5.40518 -2.19718,-8.03415 18.46615,0 36.9323,0 55.39844,0 z m 108.16013,1 c 1.3894,0 2.7787,0 4.168,0 -0.4173,13.33844 -0.9468,26.67367 -1.6543,40 -2.9707,0 -5.9414,0 -8.9121,0 0.5042,-13.34298 1.019,-26.69516 1.8594,-40 1.513,0 3.026,0 4.539,0 z m -725.59763,2.84961 c 5.26162,0.57116 10.56254,0.71908 15.81641,1.35938 1.29921,9.13613 2.39634,18.30006 3.52503,27.45922 0.30276,2.58506 0.62536,5.27223 0.8723,7.89534 0.2791,1.44312 1.71719,2.30444 3.02174,2.70175 2.18886,0.41889 4.44138,0.29948 6.65993,0.43177 17.42453,0.5355 34.86385,0.0577 52.2884,0.58903 0.84232,-0.0907 1.18458,0.0975 0.51729,0.79588 -2.13114,3.28593 -4.48276,6.45508 -7.205,9.2774 -4.02109,4.01669 -9.09639,6.96068 -14.59813,8.40207 -5.76655,1.55193 -11.74193,2.09075 -17.66945,2.64675 -1.38754,0.11505 -2.96251,0.21267 -4.23633,0.27149 -1.99781,0.059 -4.09037,0.27092 -5.95834,-0.61086 -2.18025,-0.96475 -4.26674,-2.13945 -6.319,-3.35008 -5.41774,-3.42541 -10.21217,-7.75238 -14.6444,-12.36022 -2.23845,-2.34945 -4.36523,-4.81972 -6.16615,-7.52454 -0.21703,-0.32304 -0.64139,-0.98547 -0.9179,-1.44976 -3.5881,-6.66273 -4.93639,-14.26344 -5.54566,-21.73215 -0.0885,-1.07846 -0.13462,-2.36078 -0.19855,-3.36692 -0.1524,-3.84181 -0.14035,-7.68797 -0.0547,-11.53125 0.27084,0.0319 0.54167,0.0638 0.8125,0.0957 z m -145.70508,0.27344 c 6.28325,0.0715 12.84549,0.68022 18.39873,3.87505 5.42589,3.13447 9.19835,8.32163 12.59999,13.44428 0.56646,0.91284 1.31567,1.78082 1.7691,2.72141 -0.67707,5.65082 -1.12217,11.33673 -2.15258,16.93973 -0.15103,0.82576 -0.37884,1.9375 -0.58594,2.86718 -0.94947,4.0529 -2.15513,8.34952 -5.25697,11.31634 -3.30176,3.00902 -7.99216,3.80421 -12.31893,3.63779 -6.61889,-0.29715 -13.0877,-2.47495 -18.77218,-5.83002 -5.82701,-3.56357 -10.06969,-9.16021 -13.31139,-15.07292 -1.55796,-2.81233 -2.9495,-5.71188 -4.39522,-8.58244 1.69231,-5.30163 2.9606,-10.79972 5.5492,-15.76284 1.9676,-3.46391 4.82877,-6.6696 8.65861,-8.05803 2.52802,-0.98503 5.44519,-1.33875 8.01485,-1.45256 0.60077,-0.0222 1.20156,-0.0377 1.80273,-0.043 z m 178.92969,3.50195 c 18.15417,3.4502 36.23451,7.27365 54.34741,10.93181 0.82576,-0.0976 0.46066,0.783 0.52357,1.29503 -0.0339,3.043 -0.25087,6.23819 -0.57996,9.16574 -0.0788,0.66081 -0.15756,1.32161 -0.23633,1.98242 -18.4362,0 -36.8724,0 -55.30859,0 -0.98427,-8.063 -2.06858,-16.07402 -2.88672,-24.14062 1.3802,0.2552 2.76041,0.51041 4.14062,0.76562 z m 1116.95512,7.1211 c 2.7445,0.43356 5.4188,1.28238 7.9863,2.33203 2.9223,1.28391 5.4595,3.4491 7.0281,6.24585 1.8866,3.14583 3.2169,6.60569 4.2257,10.12244 0.3141,1.25877 0.4678,2.73435 -0.3573,3.83874 -3.9026,0.72297 -7.8922,0.68893 -11.8435,0.88767 -11.7331,0.40822 -23.4874,0.65839 -35.2386,0.98537 1.2917,-5.92903 3.8189,-11.81815 8.3706,-15.97683 4.72,-4.3421 10.8512,-6.77838 16.9989,-8.30279 0.9298,-0.21032 1.885,-0.28516 2.8298,-0.13248 z m -118.4102,0.53124 c 1.1051,0.28946 2.3856,0.86736 3.2454,1.30124 2.4326,1.23145 4.9632,2.73477 7.0003,4.68514 2.0329,2.00253 3.1992,4.67948 4.3151,7.25917 1.2492,3.21812 2.3035,6.55619 2.6858,9.99864 -0.062,0.48558 0.4426,1.52599 -0.4123,1.30971 -15.3738,0.49694 -30.7034,1.10779 -46.0909,1.16876 -0.7986,0 -1.5972,0 -2.3957,0 0.07,-2.06586 0.4534,-4.17154 1.4687,-5.99414 9.1882,-0.19361 18.3763,-0.3851 27.5645,-0.58008 0.8388,-6.39264 1.4964,-12.80925 2.4863,-19.18164 l 0.097,0.0243 z m -13.3945,3.1504 c -0.1167,1.11923 -0.2431,2.23742 -0.3867,3.35351 -1.7935,0.19754 -3.6002,0.2064 -5.4024,0.21094 1.837,-1.49798 3.7996,-2.83738 5.8359,-4.04883 -0.016,0.16146 -0.031,0.32292 -0.047,0.48438 z m -226.2598,2.63867 c 5.5093,3.01475 10.7978,7.02295 13.7988,12.66992 1.6508,3.07692 2.3147,6.61945 2.1895,10.0918 -15.8637,0.56499 -31.6709,1.21811 -47.5488,1.17382 0.2516,-2.03705 0.8424,-4.24654 1.5879,-6.00781 1.811,-4.49611 4.2634,-8.7946 7.5633,-12.3652 3.5023,-3.36983 8.292,-4.83719 12.8684,-6.09338 1.9406,-0.51793 3.8924,-0.99283 5.8397,-1.48478 1.2338,0.67188 2.4675,1.34375 3.7012,2.01563 z m 112.9844,-1.50391 c 2.4321,0.38894 4.5363,1.77793 6.7371,2.79689 1.4284,0.73257 2.8497,1.48074 4.2336,2.29491 0.379,0.23445 1.0708,0.65389 1.5586,0.97656 3.2392,2.10774 6.1794,4.96797 7.4745,8.69183 0.6175,1.61872 1.0062,3.31464 1.3106,5.01715 0.07,0.3982 0.1889,1.17028 0.2676,1.7129 0.3799,0.87956 -0.2968,0.86339 -0.9977,0.82674 -15.8303,0.57069 -31.6428,1.17912 -47.4984,1.12052 0.8526,-4.54811 2.5119,-9.12167 5.8014,-12.48998 4.0239,-4.25215 9.4713,-6.67821 14.724,-9.03326 1.761,-0.70215 3.6336,-1.7082 5.6311,-1.9296 0.2525,-0.0255 0.5061,-0.0181 0.7576,0.0153 z M 443.81055,553.125 c 0.65771,0.0315 1.04347,0.30649 0.95297,1.00448 0.36138,2.82794 0.72276,5.65587 1.08414,8.4838 -0.97657,0 -1.95313,0 -2.92969,0 0.27008,-3.16634 0.49172,-6.33929 0.85351,-9.49805 z m 15.01562,3.02539 c 6.60351,1.17879 13.15809,2.633 19.72305,3.97288 5.07214,1.05616 10.14489,2.11051 15.23203,3.09157 -11.69368,-0.12405 -23.38761,-0.26916 -35.07813,-0.57617 -0.23058,-2.23882 -0.45901,-4.37088 -0.65234,-6.60351 0.25846,0.0384 0.51693,0.0768 0.77539,0.11523 z m 8.12695,19.5957 c 21.15956,0.0395 42.31788,0.39951 63.46979,0.95452 3.66286,0.10498 7.24354,0.21461 10.92084,0.47322 -2.24048,5.0674 -5.0701,10.01705 -9.2699,13.72264 -4.87482,4.37409 -10.92555,7.15995 -17.01697,9.40089 -2.8517,0.96302 -5.92899,1.07731 -8.87771,0.53406 -10.42966,-1.5682 -20.10947,-6.52543 -28.32685,-13.01377 -1.2216,-0.97276 -2.49943,-2.05473 -3.56202,-3.02582 -3.0438,-2.74832 -5.84593,-5.7688 -8.3235,-9.03792 0.32877,-0.003 0.65755,-0.005 0.98632,-0.008 z m 152.35547,0.86719 c 12.75778,0.0292 25.51724,0.0537 38.27149,0.38672 -1.50529,2.71607 -3.10146,5.38114 -4.76367,8.00391 -0.39478,0.59463 -0.93616,1.45406 -1.33942,2.05719 -1.06301,1.72339 -2.30996,3.38073 -4.04599,4.47809 -3.55452,2.31977 -7.66381,3.56194 -11.63953,4.94848 -5.4578,1.78224 -10.9733,3.39045 -16.51217,4.89905 -0.97717,0.16244 -1.96558,-0.2506 -2.9368,-0.38901 -3.34023,-0.71623 -6.58761,-1.81526 -9.74875,-3.10123 -0.6286,-0.26653 -1.55085,-0.64567 -2.28727,-0.97267 -4.56751,-2.03335 -9.04153,-4.39913 -12.96134,-7.527 -2.84588,-2.28105 -4.90214,-5.33986 -7.05014,-8.24463 -1.01306,-1.41607 -2.00232,-2.84984 -2.94734,-4.31234 12.65244,-0.21128 25.30713,-0.20327 37.96093,-0.22656 z m 96.20508,0.0215 c 19.39053,0.0212 38.77635,0.51646 58.15625,1.12109 -2.3826,3.71268 -5.89654,6.50759 -9.38502,9.12658 -2.33993,1.72659 -4.77459,3.32133 -7.25365,4.84022 -1.28273,0.77101 -2.75996,1.65448 -4.14449,2.42575 -3.78736,2.14088 -7.60999,4.2231 -11.50004,6.1719 -7.17618,-2.05449 -14.47149,-4.00861 -21.05954,-7.61639 -2.98402,-1.60131 -5.79575,-3.51476 -8.42484,-5.64728 -0.2783,-0.24519 -0.89439,-0.73843 -1.29378,-1.09444 -3.22195,-2.77034 -6.06881,-5.94404 -8.757,-9.22587 4.55344,-0.0895 9.10792,-0.10293 13.66211,-0.10156 z m 786.59963,6.09179 c 0.876,-0.11333 0.9873,0.0906 0.2528,0.60348 -2.7747,2.44749 -5.6798,4.79642 -8.9025,6.63127 -2.5183,1.19193 -5.0722,2.44582 -7.8321,2.95723 -2.7369,0.54284 -5.333,-0.83562 -7.6,-2.20343 -2.3038,-1.38569 -4.48,-2.98613 -6.3598,-4.91654 -0.6733,-0.67097 -1.3331,-1.35656 -1.9569,-2.07396 9.5999,-0.48188 19.1533,-0.74786 28.7737,-0.9522 1.2081,-0.0224 2.4165,-0.0314 3.6248,-0.0459 z m -119.1016,2.33594 c -3.5029,3.81427 -7.4098,7.45055 -12.236,9.50323 -2.2434,0.95292 -4.5079,1.96657 -6.9197,2.39911 -3.2027,0.52258 -6.3365,-0.60162 -9.356,-1.51685 -2.5264,-0.82446 -5.0341,-2.19299 -6.4171,-4.55544 -1.0456,-1.60498 -1.803,-3.37161 -2.7157,-5.05075 4.5873,-0.40177 9.1765,-0.40631 13.7555,-0.57243 8.0592,-0.20944 16.1182,-0.44795 24.18,-0.52718 -0.097,0.10677 -0.194,0.21354 -0.291,0.32031 z m -118.1933,2.03711 c -4.0797,4.90488 -9.6236,8.30407 -15.2817,11.10133 -4.1387,1.96738 -8.9507,3.27465 -13.484,1.95336 -4.3511,-1.20432 -7.6341,-4.66666 -9.9219,-8.41305 -0.7795,-1.24901 -1.4545,-2.55849 -2.1054,-3.87797 13.7187,-0.57549 27.3842,-1.04983 41.1172,-1.16601 -0.1081,0.13411 -0.2162,0.26822 -0.3242,0.40234 z m -125.2539,1.72266 c 2.6633,-0.007 5.3263,0.0431 7.9882,0.125 -2.4531,4.4604 -6.0994,8.30409 -10.5175,10.84961 -2.9194,1.51498 -6.1432,2.36086 -9.3588,2.97479 -3.3234,0.56843 -6.8198,0.37915 -9.9558,-0.92477 -2.8884,-1.01496 -5.7598,-2.51216 -7.6327,-5.01096 -0.213,-0.28756 -0.6795,-0.90177 -0.9596,-1.33736 -1.1924,-1.79095 -2.1397,-3.72844 -3.0931,-5.65288 11.1988,-0.48044 22.3319,-0.96943 33.5293,-1.02343 z" />
  </g>
</svg>
